<?xml version="1.0" encoding="UTF-8"?>
<svg width="55px" height="19px" viewBox="0 0 55 19" version="1.1" xmlns="http://www.w3.org/2000/svg" xmlns:xlink="http://www.w3.org/1999/xlink">
    <!-- Generator: Sketch 56.2 (81672) - https://sketch.com -->
    <title>编组 7</title>
    <desc>Created with Sketch.</desc>
    <g id="Page-1" stroke="none" stroke-width="1" fill="none" fill-rule="evenodd">
        <g id="压缩版本2" transform="translate(-114.000000, -35.000000)">
            <g id="编组-7" transform="translate(114.000000, 35.000000)">
                <rect id="矩形备份-10" fill="#31B0E6" x="5" y="0" width="50" height="19"></rect>
                <polygon id="矩形" fill="#31B0E6" points="6 14 6 19 0 19"></polygon>
                <path d="M10.145,12.44 L13.245,4.53 L14.765,4.53 L17.895,12.44 L16.545,12.44 L15.715,10.26 L12.305,10.26 L11.495,12.44 L10.145,12.44 Z M14.005,5.73 L12.625,9.42 L15.395,9.42 L14.005,5.73 Z M18.645,12.4 L18.645,4.04 L19.915,4.04 L19.915,12.4 L18.645,12.4 Z M22.455,11.74 L23.375,11.74 C24.6750065,11.7466667 25.3216667,11.0333405 25.315,9.6 C25.3283334,8.2066597 24.6850065,7.51 23.385,7.51 L22.455,7.51 L22.455,11.74 Z M21.195,14.73 L21.195,6.68 L23.645,6.68 C25.6516767,6.6666666 26.6450001,7.6466568 26.625,9.62 C26.6116666,11.5800098 25.6216765,12.5666666 23.655,12.58 L22.455,12.58 L22.455,14.73 L21.195,14.73 Z M27.745,12.41 L27.745,4.04 L29.005,4.04 L29.005,6.66 L30.555,6.66 C32.1150078,6.66 32.895,7.3433265 32.895,8.71 L32.895,12.41 L31.625,12.41 L31.625,8.92 C31.6516668,7.9466618 31.1450052,7.4699999 30.105,7.49 L29.005,7.49 L29.005,12.41 L27.745,12.41 Z M38.125,9.67 L36.745,9.67 C35.6583279,9.6566666 35.1283332,10.0066631 35.155,10.72 C35.1483333,11.4066701 35.6316618,11.7466667 36.605,11.74 L38.125,11.74 L38.125,9.67 Z M39.335,8.9 L39.335,12.58 L36.285,12.58 C34.7183255,12.5599999 33.9216668,11.9766724 33.895,10.83 C33.828333,9.4833266 34.7783235,8.8299998 36.745,8.87 L38.115,8.87 C38.1016666,8.0099957 37.6350046,7.5733334 36.715,7.56 C35.9549962,7.5666667 35.4350014,7.8799969 35.155,8.5 L33.965,8.5 C34.3116684,7.2799939 35.2316592,6.6633334 36.725,6.65 C38.4850088,6.6366666 39.3550001,7.3866591 39.335,8.9 Z M43.965,13.04 L43.965,11.86 C44.3316685,11.4133311 44.5050001,10.5633396 44.485,9.31 L44.485,4.48 L47.375,4.48 C48.0550034,4.4866667 48.7216634,4.3933343 49.375,4.2 L49.375,5.07 C48.7883304,5.2166674 48.1416702,5.29 47.435,5.29 L45.605,5.29 L45.605,6.64 L49.195,6.64 L49.195,7.41 C48.9749989,8.8166737 48.5783362,9.9466624 48.005,10.8 C48.3850019,11.2200021 48.8849969,11.6233314 49.505,12.01 L49.505,13.02 C48.6183289,12.6333314 47.9016694,12.1633361 47.355,11.61 C46.8483308,12.1366693 46.1783375,12.6099979 45.345,13.03 L45.345,12.08 C45.8850027,11.7 46.3383315,11.2866689 46.705,10.84 C46.2316643,10.1666633 45.8650013,9.3333383 45.605,8.34 L45.605,9.16 C45.6316668,11.2666772 45.0850056,12.5599976 43.965,13.04 Z M42.645,12.95 L42.645,9.01 L41.945,9.01 L41.945,9.5 C41.9716668,11.4400097 41.4883383,12.6299978 40.495,13.07 L40.495,11.91 C40.8016682,11.5033313 40.9483334,10.7400056 40.935,9.62 L40.935,4.24 L41.945,4.24 L41.945,6.41 L42.605,6.41 L42.605,4.03 L43.635,4.03 L43.635,6.41 L44.125,6.41 L44.125,7.2 L41.945,7.2 L41.945,8.23 L43.675,8.23 L43.675,12.95 L42.645,12.95 Z M46.575,7.97 C46.7616676,8.7233371 47.0149984,9.3633307 47.335,9.89 C47.6816684,9.22333 47.9316659,8.4000049 48.085,7.42 L45.605,7.42 L45.605,7.97 L46.575,7.97 Z" id="Alpha版" fill="#FFFFFF" fill-rule="nonzero"></path>
            </g>
        </g>
    </g>
</svg>