<svg xmlns="http://www.w3.org/2000/svg" width="19" height="20"><path d="M17.887 6.68a1.142 1.142 0 0 1 .789.29.914.914 0 0 1 .324.709v5.9a.9.9 0 0 1-.324.69 1.146 1.146 0 0 1-.789.289h-.364a1.147 1.147 0 0 1-.79-.289.9.9 0 0 1-.323-.69v-5.9a.913.913 0 0 1 .323-.709 1.143 1.143 0 0 1 .79-.29h.364zm-16.4 0a1.071 1.071 0 0 1 .769.29.942.942 0 0 1 .3.709v5.9a.923.923 0 0 1-.3.69 1.075 1.075 0 0 1-.769.289h-.364a1.147 1.147 0 0 1-.79-.289.9.9 0 0 1-.323-.69v-5.9a.917.917 0 0 1 .323-.709 1.143 1.143 0 0 1 .79-.29h.364zm11.17-4.633a4.336 4.336 0 0 1 .759.44 5.3 5.3 0 0 1 .759.659 4.787 4.787 0 0 1 .637.828 3.345 3.345 0 0 1 .395.949H3.7a4 4 0 0 1 1.022-1.737 6.88 6.88 0 0 1 1.407-1.079L5.097.507a.152.152 0 0 1-.01-.15.468.468 0 0 1 .212-.23.435.435 0 0 1 .3-.13.318.318 0 0 1 .182.05l1.052 1.638a6.027 6.027 0 0 1 1.194-.4 6.156 6.156 0 0 1 3.864.42L12.964.047a.22.22 0 0 1 .152-.04.815.815 0 0 1 .334.12.47.47 0 0 1 .232.18.106.106 0 0 1-.01.12zM7 3.765a.609.609 0 0 0 .445-.18.622.622 0 0 0 0-.879.64.64 0 0 0-.89 0 .619.619 0 0 0 0 .879.607.607 0 0 0 .445.18zm4.977-.08a.611.611 0 0 0 .446-.18.62.62 0 0 0 0-.878.641.641 0 0 0-.891 0 .62.62 0 0 0 0 .878.61.61 0 0 0 .445.18zm3.218 2.5l.02 8.986a1.014 1.014 0 0 1-.294.739.965.965 0 0 1-.718.3h-.283V19a1.014 1.014 0 0 1-1.012 1h-.587a.945.945 0 0 1-.7-.3.971.971 0 0 1-.293-.7v-2.795H7.605V19a1.014 1.014 0 0 1-1.012 1h-.587a.945.945 0 0 1-.7-.3.971.971 0 0 1-.293-.7v-2.795H4.8a.965.965 0 0 1-.718-.3 1.014 1.014 0 0 1-.294-.739V6.18H15.2zm0 0" fill="#1d1d1d" fill-rule="evenodd"/></svg>