<svg xmlns="http://www.w3.org/2000/svg" width="16" height="19"><path d="M15.453 6.4A4.2 4.2 0 0 0 16 13.953a23.61 23.61 0 0 1-1.23 2.272Q12.994 19 11.537 19a3.753 3.753 0 0 1-1.456-.418 4.239 4.239 0 0 0-1.775-.416 4.094 4.094 0 0 0-1.752.416A3.6 3.6 0 0 1 5.119 19q-1.55 0-3.233-2.6a11.67 11.67 0 0 1-1.842-5.259 6.442 6.442 0 0 1 .8-4.286 4.483 4.483 0 0 1 3.914-2.412 5.577 5.577 0 0 1 1.888.417 5.39 5.39 0 0 0 1.662.418 4.78 4.78 0 0 0 1.594-.418 5.349 5.349 0 0 1 1.957-.417 4.519 4.519 0 0 1 3.6 1.948zM10.58 3.11a3.247 3.247 0 0 1-2.868 1.482A3.836 3.836 0 0 1 8.67 1.58 4.029 4.029 0 0 1 11.492 0a4.1 4.1 0 0 1-.911 3.1zm0 0" fill="#1d1d1d" fill-rule="evenodd"/></svg>