<?xml version="1.0" encoding="UTF-8"?>
<svg width="1920px" height="670px" viewBox="0 0 1920 670" version="1.1" xmlns="http://www.w3.org/2000/svg" xmlns:xlink="http://www.w3.org/1999/xlink">
    <!-- Generator: Sketch 57.1 (83088) - https://sketch.com -->
    <title>编组 5备份 2</title>
    <desc>Created with Sketch.</desc>
    <defs>
        <radialGradient cx="50%" cy="0%" fx="50%" fy="0%" r="163.199485%" gradientTransform="translate(0.500000,0.000000),scale(0.348958,1.000000),rotate(175.617393),translate(-0.500000,-0.000000)" id="radialGradient-1">
            <stop stop-color="#2848EF" offset="0%"></stop>
            <stop stop-color="#211B8E" offset="52.9529305%"></stop>
            <stop stop-color="#1C0C79" offset="73.1286951%"></stop>
            <stop stop-color="#0F0065" offset="100%"></stop>
        </radialGradient>
        <rect id="path-2" x="-1.13686838e-13" y="0" width="1920" height="670"></rect>
        <linearGradient x1="74.6561804%" y1="50%" x2="11.854369%" y2="50.0001977%" id="linearGradient-4">
            <stop stop-color="#1A4FFF" offset="0%"></stop>
            <stop stop-color="#01FBED" offset="17.2742189%"></stop>
            <stop stop-color="#00FDED" stop-opacity="0" offset="67.1864847%"></stop>
            <stop stop-color="#00FFEC" offset="100%"></stop>
        </linearGradient>
        <linearGradient x1="50.0001697%" y1="50%" x2="49.9997375%" y2="264.605382%" id="linearGradient-5">
            <stop stop-color="#1A4FFF" offset="0%"></stop>
            <stop stop-color="#01FBED" offset="17.2742189%"></stop>
            <stop stop-color="#00FDED" stop-opacity="0" offset="67.1864847%"></stop>
            <stop stop-color="#00FFEC" offset="100%"></stop>
        </linearGradient>
        <linearGradient x1="50%" y1="-13.6110875%" x2="50%" y2="154.568517%" id="linearGradient-6">
            <stop stop-color="#02CCCF" offset="0%"></stop>
            <stop stop-color="#02CBCF" stop-opacity="0" offset="100%"></stop>
        </linearGradient>
        <linearGradient x1="50%" y1="-13.6110875%" x2="50%" y2="150.584031%" id="linearGradient-7">
            <stop stop-color="#FF00EE" offset="0%"></stop>
            <stop stop-color="#FF00CC" stop-opacity="0" offset="100%"></stop>
        </linearGradient>
        <linearGradient x1="50%" y1="-13.6110875%" x2="50%" y2="152.677562%" id="linearGradient-8">
            <stop stop-color="#00FBFF" offset="0%"></stop>
            <stop stop-color="#00FAFF" stop-opacity="0" offset="100%"></stop>
        </linearGradient>
        <linearGradient x1="50%" y1="-13.6110875%" x2="50%" y2="152.677562%" id="linearGradient-9">
            <stop stop-color="#00FBFF" offset="0%"></stop>
            <stop stop-color="#00FAFF" stop-opacity="0" offset="100%"></stop>
        </linearGradient>
        <linearGradient x1="50%" y1="-13.6110875%" x2="50%" y2="152.677562%" id="linearGradient-10">
            <stop stop-color="#00FBFF" offset="0%"></stop>
            <stop stop-color="#00FAFF" stop-opacity="0" offset="100%"></stop>
        </linearGradient>
        <linearGradient x1="50%" y1="-13.6110875%" x2="50%" y2="152.677562%" id="linearGradient-11">
            <stop stop-color="#00FBFF" offset="0%"></stop>
            <stop stop-color="#00FAFF" stop-opacity="0" offset="100%"></stop>
        </linearGradient>
        <linearGradient x1="50%" y1="-13.6110875%" x2="50%" y2="152.677562%" id="linearGradient-12">
            <stop stop-color="#00FBFF" offset="0%"></stop>
            <stop stop-color="#00FAFF" stop-opacity="0" offset="100%"></stop>
        </linearGradient>
        <linearGradient x1="50%" y1="-13.6110875%" x2="50%" y2="150.584031%" id="linearGradient-13">
            <stop stop-color="#FF00EE" offset="0%"></stop>
            <stop stop-color="#FF00CC" stop-opacity="0" offset="100%"></stop>
        </linearGradient>
        <linearGradient x1="50%" y1="-13.6110875%" x2="50%" y2="152.677562%" id="linearGradient-14">
            <stop stop-color="#00FBFF" offset="0%"></stop>
            <stop stop-color="#00FAFF" stop-opacity="0" offset="100%"></stop>
        </linearGradient>
        <linearGradient x1="50%" y1="-13.6110875%" x2="50%" y2="152.677562%" id="linearGradient-15">
            <stop stop-color="#00FBFF" offset="0%"></stop>
            <stop stop-color="#00FAFF" stop-opacity="0" offset="100%"></stop>
        </linearGradient>
        <linearGradient x1="50%" y1="-13.6110875%" x2="50%" y2="152.677562%" id="linearGradient-16">
            <stop stop-color="#00FBFF" offset="0%"></stop>
            <stop stop-color="#00FAFF" stop-opacity="0" offset="100%"></stop>
        </linearGradient>
        <linearGradient x1="50%" y1="-13.6110875%" x2="50%" y2="150.584031%" id="linearGradient-17">
            <stop stop-color="#FF00EE" offset="0%"></stop>
            <stop stop-color="#FF00CC" stop-opacity="0" offset="100%"></stop>
        </linearGradient>
        <linearGradient x1="50%" y1="-13.6110875%" x2="50%" y2="152.677562%" id="linearGradient-18">
            <stop stop-color="#00FBFF" offset="0%"></stop>
            <stop stop-color="#00FAFF" stop-opacity="0" offset="100%"></stop>
        </linearGradient>
        <linearGradient x1="50%" y1="-13.6110875%" x2="50%" y2="152.677562%" id="linearGradient-19">
            <stop stop-color="#00FBFF" offset="0%"></stop>
            <stop stop-color="#00FAFF" stop-opacity="0" offset="100%"></stop>
        </linearGradient>
        <linearGradient x1="50%" y1="-13.6110875%" x2="50%" y2="150.584031%" id="linearGradient-20">
            <stop stop-color="#FF00EE" offset="0%"></stop>
            <stop stop-color="#FF00CC" stop-opacity="0" offset="100%"></stop>
        </linearGradient>
        <linearGradient x1="50%" y1="-13.6110875%" x2="50%" y2="152.677562%" id="linearGradient-21">
            <stop stop-color="#00FBFF" offset="0%"></stop>
            <stop stop-color="#00FAFF" stop-opacity="0" offset="100%"></stop>
        </linearGradient>
        <path d="M14.28,22.2 L43.56,22.2 C38.28,18.72 33.48,14.7 28.86,9.72 C24.54,14.46 19.56,18.72 14.28,22.2 Z M47.4,28.5 L32.64,28.5 L32.64,35.4 L46.92,35.4 L46.92,41.64 L32.64,41.64 L32.64,48.84 L54.6,48.84 L54.6,55.26 L3.6,55.26 L3.6,48.84 L25.14,48.84 L25.14,41.64 L11.46,41.64 L11.46,35.4 L25.14,35.4 L25.14,28.5 L10.62,28.5 L10.62,24.48 C8.76,25.56 6.84,26.58 4.86,27.54 C3.9,25.68 1.8,23.28 0,21.6 C10.74,17.16 21.66,9.36 27.66,0.06 L34.02,3 L32.94,4.62 C40.08,12.24 48.36,17.52 57.96,21.72 C56.16,23.34 54.06,25.74 53.16,27.84 C51.18,26.76 49.2,25.68 47.4,24.66 L47.4,28.5 Z M110.28,19.2 L116.46,22.44 C113.34,26.52 109.56,30.96 106.56,34.02 C109.14,39.18 112.68,43.02 117.78,46.62 C116.16,47.82 114.24,50.1 113.4,52.02 C108.36,48.18 104.82,44.1 102.06,39.06 L102.06,48.6 C102.06,52.2 101.34,54.06 99.24,55.2 C97.2,56.4 94.14,56.7 89.7,56.7 C89.4,54.78 88.2,51.72 87.3,49.8 C90.18,49.92 93,49.92 93.9,49.86 C94.8,49.86 95.22,49.56 95.22,48.66 L95.22,38.82 C91.02,42.9 86.7,47.04 82.98,50.4 L79.68,45.36 C73.5,47.34 67.02,49.38 61.86,51 L60.36,44.22 C62.46,43.68 64.86,43.02 67.56,42.24 L67.56,27.78 L61.56,27.78 L61.56,21.24 L67.56,21.24 L67.56,10.68 L61.26,10.68 L61.26,4.02 L80.28,4.02 L80.28,10.68 L74.22,10.68 L74.22,21.24 L79.38,21.24 L79.38,27.78 L74.22,27.78 L74.22,40.32 L80.34,38.46 L81,42.36 C84.9,39.48 90.24,35.28 95.22,31.14 L95.22,16.8 L81.42,16.8 L81.42,10.26 L95.22,10.26 L95.22,0.66 L102.06,0.66 L102.06,10.26 L110.22,10.26 C108.66,8.46 106.08,6.24 103.92,4.62 L107.82,1.02 C110.34,2.58 113.46,5.16 115.02,6.96 L111.6,10.26 L116.76,10.26 L116.76,16.8 L102.06,16.8 L102.06,19.2 C102.66,22.5 103.38,25.38 104.22,28.08 C106.44,25.2 108.78,21.9 110.28,19.2 Z M81.78,21.9 L87.3,19.44 C89.58,22.74 92.16,27 93.06,30 L87.24,32.7 C86.4,29.82 84,25.26 81.78,21.9 Z M153.36,17.22 L164.76,17.22 C163.92,15.3 162.12,12.6 160.44,10.32 L158.04,10.32 C156.66,12.96 154.98,15.3 153.36,17.22 Z M163.74,26.52 L163.74,23.1 L151.8,23.1 L151.8,26.52 L163.74,26.52 Z M144.78,35.94 L144.78,32.4 L135,32.4 C134.82,33.6 134.7,34.8 134.52,35.94 L144.78,35.94 Z M134.7,10.38 L132.9,10.38 C131.22,13.02 129.42,15.3 127.62,17.22 L137.82,17.22 C137.28,15.36 136.08,12.66 134.7,10.38 Z M176.58,5.16 L176.58,10.32 L168.12,10.32 C169.32,11.88 170.4,13.5 171,14.7 L164.88,17.22 L170.82,17.22 L170.82,32.4 L151.8,32.4 L151.8,35.94 L173.76,35.94 C173.76,35.94 173.7,37.68 173.58,38.52 C172.98,46.5 172.26,50.4 170.7,51.96 C169.44,53.4 168,53.88 166.14,54.06 C164.46,54.24 161.64,54.3 158.52,54.18 C158.4,52.08 157.68,49.44 156.54,47.7 C159.06,47.94 161.58,48 162.66,47.94 C163.56,47.94 164.16,47.88 164.7,47.4 C165.3,46.8 165.78,45.18 166.14,41.88 L151.8,41.88 L151.8,56.7 L144.78,56.7 L144.78,45 C139.74,49.92 133.08,54 126.54,56.46 C125.52,54.72 123.54,52.14 122.04,50.82 C128.28,48.96 134.76,45.66 139.44,41.88 L126.54,41.88 C127.44,37.8 128.34,31.56 128.76,26.52 L144.78,26.52 L144.78,23.1 L126.6,23.1 L126.6,17.34 C125.1,16.32 122.64,15 121.2,14.34 C125.22,10.92 128.88,5.52 130.86,0.12 L137.34,1.86 C136.86,2.94 136.38,4.08 135.84,5.22 L149.7,5.22 L149.7,10.38 L141.9,10.38 C142.8,12.06 143.64,13.74 144.06,15 L138.18,17.22 L152.46,17.22 C150.84,16.14 148.26,14.7 146.76,13.98 C150.36,10.74 153.42,5.4 154.92,0.12 L161.82,1.74 C161.52,2.82 161.1,4.02 160.62,5.16 L176.58,5.16 Z M181.38,24.18 L236.46,24.18 L236.46,31.92 L181.38,31.92 L181.38,24.18 Z M250.2,11.82 L250.2,18.9 L243.18,18.9 L243.18,5.34 L264.9,5.34 C264.48,4.2 263.94,3.06 263.46,2.16 L271.02,0 C271.98,1.62 273,3.6 273.6,5.34 L294.96,5.34 L294.96,18.9 L287.64,18.9 L287.64,11.82 L250.2,11.82 Z M285.3,22.14 L291.24,26.82 C288.84,28.68 286.14,30.6 283.5,32.4 C285.84,39.48 290.64,45.42 297.54,48.18 C295.92,49.5 293.82,52.26 292.8,54 C285.6,50.58 280.86,44.16 277.92,36 C277.32,36.42 276.66,36.78 276.06,37.14 C277.74,44.34 276.3,51.24 273.24,53.76 C271.14,55.92 269.22,56.52 266.1,56.58 C264.78,56.64 262.98,56.58 261.24,56.52 C261.12,54.54 260.52,51.72 259.32,49.74 C261.42,49.98 263.34,50.04 264.72,50.04 C266.16,50.04 267.12,49.86 267.96,48.6 C268.98,47.64 269.7,45.42 269.7,42.54 C262.86,47.22 253.44,51.66 245.46,54.06 C244.68,52.32 243.12,49.74 241.74,48.12 C251.22,46.08 262.74,40.92 268.68,35.88 C268.44,35.16 268.14,34.38 267.78,33.6 C261.78,37.38 253.02,41.28 246.18,43.38 C245.4,41.76 243.9,39.36 242.64,37.86 C250.02,36.3 259.86,32.52 265.08,29.04 C264.54,28.38 264,27.72 263.4,27.06 C258.18,29.82 252.36,31.86 246.72,33.36 C246.06,31.98 244.26,29.16 243.06,27.78 C249.84,26.4 256.98,24.12 262.38,21.18 L252.06,21.18 L252.06,15.12 L285.6,15.12 L285.6,21.18 L272.28,21.18 C271.2,22.14 270,23.1 268.68,23.94 C271.02,26.1 272.76,28.62 273.96,31.2 C278.1,28.44 282.42,25.02 285.3,22.14 Z M333.24,4.38 L340.32,1.5 C343.92,8.94 351.12,17.7 357.06,22.92 C355.14,24.3 352.5,27.12 351.06,29.04 C345,22.86 337.8,13.14 333.24,4.38 Z M316.8,1.92 L324.6,4.14 C320.7,13.86 314.34,23.22 308.04,29.04 C306.54,27.72 303.24,25.14 301.32,23.94 C307.8,18.96 313.56,10.56 316.8,1.92 Z M334.62,35.22 L341.4,32.1 C346.38,38.7 352.08,47.22 354.96,52.8 L347.82,56.64 C346.92,54.66 345.6,52.32 344.1,49.8 C315.06,52.26 310.98,52.5 308.04,53.58 C307.68,52.14 306.3,48.18 305.28,46.08 C307.26,45.54 308.7,44.04 310.92,41.34 C313.44,38.76 320.7,28.44 325.14,18.36 L333.12,21.78 C328.74,30.06 323.1,38.1 317.58,44.58 L339.96,43.08 C338.16,40.38 336.3,37.62 334.62,35.22 Z M401.76,27.36 L397.56,27.36 C395.46,27.36 393.3,27.72 392.76,28.32 C392.4,27 391.38,23.88 390.66,22.14 C391.74,21.84 392.52,20.34 393.42,18.24 C393.78,17.4 394.44,15.54 395.16,13.2 L390.36,13.2 L390.36,6.96 L396.72,6.96 C397.2,4.8 397.62,2.58 397.92,0.36 L405,1.62 C404.58,3.42 404.16,5.16 403.62,6.96 L416.04,6.96 L416.04,13.2 L401.58,13.2 C400.5,16.14 399.3,19.02 398.22,21.54 L401.76,21.54 L401.76,15.24 L408.42,15.24 L408.42,21.54 L415.02,21.54 L415.02,27.36 L408.42,27.36 L408.42,33 L416.64,33 L416.64,39.24 L408.42,39.24 L408.42,47.28 L401.76,47.28 L401.76,39.24 L390.66,39.24 L390.66,33 L401.76,33 L401.76,27.36 Z M388.92,13.98 L382.74,15.96 C382.14,12.66 380.64,7.56 379.26,3.78 L385.14,2.04 C386.58,5.82 388.2,10.68 388.92,13.98 Z M373.56,44.28 L377.94,41.04 C378.36,42.78 379.26,45.3 379.98,46.5 C370.5,53.52 368.82,55.02 367.86,56.28 L367.8,55.92 C367.74,56.04 367.74,56.16 367.74,56.28 C367.14,55.02 365.4,52.62 364.32,51.72 C365.58,50.7 367.32,48.48 367.32,45.3 L367.32,35.88 L361.98,35.88 L361.98,29.82 L367.32,29.82 L367.32,23.58 L364.56,23.58 L364.56,19.5 C364.26,20.04 363.84,20.52 363.48,20.88 C363,19.44 361.32,15.96 360.3,14.46 C363.06,11.04 365.16,5.94 366.48,0.78 L372.36,2.46 C372,3.78 371.58,5.1 371.1,6.48 L379.02,6.48 L379.02,12.6 L368.7,12.6 C367.8,14.4 366.9,16.02 365.88,17.58 L377.58,17.58 L377.58,23.58 L373.56,23.58 L373.56,29.82 L379.26,29.82 L379.26,35.88 L373.56,35.88 L373.56,44.28 Z M388.98,20.04 L388.98,44.52 C390,45.06 391.08,45.9 392.52,46.74 C395.52,48.54 399.24,49.08 403.86,49.08 C407.46,49.08 413.58,48.72 417.48,48.18 C416.88,50.04 415.98,53.52 415.92,55.32 C412.92,55.56 407.52,55.74 403.8,55.74 C398.64,55.74 395.04,54.84 391.8,52.86 C389.7,51.6 387.9,50.1 386.76,50.1 C385.32,50.1 382.98,53.64 381.24,56.64 L376.86,49.98 C378.66,48.06 380.64,46.38 382.56,45.3 L382.56,26.46 L379.08,26.46 L379.08,20.04 L388.98,20.04 Z M445.38,33.12 L440.94,39.06 C439.92,37.5 438.24,35.28 436.56,33.24 L436.56,56.64 L429.54,56.64 L429.54,34.56 C427.26,36.6 425.04,38.46 422.7,39.84 C422.22,37.86 420.84,33.9 420,32.58 C426,29.28 431.82,23.4 435.42,17.04 L421.74,17.04 L421.74,10.62 L432.24,10.62 C431.16,8.4 429.24,5.46 427.38,3.24 L433.02,0.3 C435.12,2.58 437.4,5.7 438.48,7.86 L433.74,10.62 L439.32,10.62 L440.52,10.32 L444.3,13.08 C442.62,17.46 440.16,21.78 437.4,25.62 C439.86,27.78 444.18,31.98 445.38,33.12 Z M464.1,47.7 L476.88,47.7 L476.88,54.78 L442.26,54.78 L442.26,47.7 L456.72,47.7 L456.72,25.44 L444.9,25.44 L444.9,18.54 L456.72,18.54 L456.72,0.96 L464.1,0.96 L464.1,18.54 L475.44,18.54 L475.44,25.44 L464.1,25.44 L464.1,47.7 Z M500.76,39.66 L493.62,39.66 L493.62,47.64 L500.76,47.64 L500.76,39.66 Z M499.86,19.2 L495.36,19.2 C495.18,20.46 495.06,21.66 494.82,22.92 L499.86,22.92 L499.86,19.2 Z M499.86,9.36 L496.32,9.36 C496.2,10.68 496.14,12 496.02,13.26 L499.86,13.26 L499.86,9.36 Z M492.06,33.54 L507.66,33.54 L507.66,53.76 L493.62,53.76 L493.62,56.7 L487.14,56.7 L487.14,42.78 C486.36,43.68 485.58,44.64 484.68,45.54 C484.02,44.22 481.62,41.52 480.3,40.32 C483.42,37.32 485.46,33.48 486.96,28.92 L484.02,28.92 L484.02,22.92 L488.46,22.92 C488.64,21.72 488.88,20.52 489.06,19.2 L481.02,19.2 L480.96,13.26 L489.6,13.26 C489.72,12 489.78,10.68 489.84,9.36 L484.32,9.36 L484.32,3.36 L506.46,3.36 L506.46,13.26 L509.4,13.26 L509.4,19.2 L506.46,19.2 L506.46,28.92 L493.44,28.92 C493.08,30.54 492.6,32.04 492.06,33.54 Z M537,36.84 L537,43.5 L526.14,43.5 L526.14,56.64 L519.24,56.64 L519.24,43.5 L509.16,43.5 L509.16,36.84 L519.24,36.84 L519.24,30.54 L511.2,30.54 L511.2,24 L519.24,24 L519.24,18.54 L510.48,18.54 L510.48,12.12 L514.02,12.12 C513.48,9.42 512.1,5.76 510.54,2.94 L516.24,0.96 C518.1,3.96 519.72,7.98 520.32,10.74 L516.48,12.12 L529.56,12.12 L524.58,10.8 C525.84,7.98 527.46,3.66 528.18,0.48 L535.08,2.1 C533.58,5.76 531.96,9.48 530.58,12.12 L535.8,12.12 L535.8,18.54 L526.14,18.54 L526.14,24 L534.72,24 L534.72,30.54 L526.14,30.54 L526.14,36.84 L537,36.84 Z M554.88,46.98 L583.38,46.98 L583.38,40.74 L554.88,40.74 L554.88,46.98 Z M583.38,27.96 L554.88,27.96 L554.88,34.14 L583.38,34.14 L583.38,27.96 Z M583.38,15.18 L554.88,15.18 L554.88,21.36 L583.38,21.36 L583.38,15.18 Z M570.42,8.34 L591,8.34 L591,56.52 L583.38,56.52 L583.38,53.58 L554.88,53.58 L554.88,56.58 L547.62,56.58 L547.62,8.34 L562.98,8.34 C563.64,5.76 564.3,2.88 564.6,0.48 L573.24,1.44 C572.34,3.84 571.38,6.18 570.42,8.34 Z M619.92,7.32 L615.78,13.14 C613.38,11.22 608.28,8.34 604.68,6.48 L608.58,1.32 C612.12,2.88 617.4,5.52 619.92,7.32 Z M616.26,23.52 L612.24,29.46 C609.84,27.66 604.74,24.84 601.02,22.98 L604.86,17.64 C608.4,19.2 613.62,21.78 616.26,23.52 Z M608.34,55.98 L602.34,51.12 C605.52,46.62 610.14,39.18 613.68,32.22 L618.9,37.02 C615.78,43.26 612,50.16 608.34,55.98 Z M656.46,24.96 L649.92,28.62 C649.5,27.54 648.9,26.4 648.3,25.14 C625.14,26.76 621.78,27 619.38,27.96 C618.96,26.52 617.88,23.16 617.1,21.3 C618.42,20.94 619.56,19.68 621.12,17.58 C622.74,15.66 627.42,7.98 630.36,0.48 L637.74,2.58 C634.92,8.64 631.26,14.7 627.66,19.68 L644.52,18.78 C642.6,15.9 640.5,13.02 638.4,10.56 L644.52,7.5 C649.26,12.9 654.18,20.04 656.46,24.96 Z M644.76,38.22 L627.9,38.22 L627.9,47.64 L644.76,47.64 L644.76,38.22 Z M620.94,56.7 L620.94,31.62 L652.02,31.62 L652.02,56.46 L644.76,56.46 L644.76,54.18 L627.9,54.18 L627.9,56.7 L620.94,56.7 Z M669.96,22.32 L688.02,22.32 C685.62,18.9 682.2,14.7 678.96,11.04 C676.44,15.18 673.38,19.02 669.96,22.32 Z M690.48,24.48 L690.48,24.72 C690,34.68 689.4,39.06 688.02,40.68 C686.94,42 685.62,42.48 684,42.72 C682.56,42.9 680.22,42.96 677.58,42.9 C677.52,41.04 676.8,38.52 675.9,36.9 C677.82,37.14 679.62,37.14 680.52,37.14 C681.3,37.14 681.78,37.02 682.2,36.48 C682.74,35.82 683.16,33.6 683.52,28.44 L673.98,28.44 L673.98,46.74 C673.98,49.2 674.46,49.56 677.16,49.56 L685.32,49.56 C687.72,49.56 688.14,48.36 688.5,42.06 C690,43.2 692.82,44.28 694.68,44.64 C693.9,53.1 692.04,55.62 685.92,55.62 L676.32,55.62 C669.3,55.62 667.08,53.7 667.08,46.8 L667.08,24.9 C666.48,25.38 665.82,25.86 665.22,26.34 C664.08,24.84 661.68,22.26 660.12,21.06 C667.38,16.14 673.68,8.1 676.8,0.54 L683.34,2.52 C682.98,3.36 682.56,4.26 682.2,5.1 C686.82,9.96 692.4,16.14 695.04,20.16 L690.48,24.48 Z M702.72,7.44 L702.72,41.34 L695.88,41.34 L695.88,7.44 L702.72,7.44 Z M707.34,1.74 L714.42,1.74 L714.42,48.24 C714.42,52.32 713.58,54.12 711.06,55.2 C708.6,56.34 704.76,56.52 699.12,56.52 C698.82,54.54 697.74,51.54 696.72,49.62 C700.5,49.8 704.52,49.8 705.72,49.8 C706.86,49.74 707.34,49.38 707.34,48.24 L707.34,1.74 Z M725.82,37.92 L731.34,39.3 C729.9,43.26 727.62,47.52 725.28,50.16 C724.2,49.26 721.98,47.58 720.66,46.8 C722.94,44.52 724.74,41.1 725.82,37.92 Z M740.04,12.36 L731.22,12.36 C732.24,14.4 733.02,17.22 733.26,19.02 L730.38,19.8 L737.46,19.8 C738.36,17.64 739.44,14.58 740.04,12.36 Z M749.1,36.3 L739.2,36.3 L739.2,49.14 C739.2,52.02 738.72,53.52 736.92,54.54 C735.12,55.5 732.72,55.56 729.54,55.56 C729.3,53.88 728.46,51.42 727.62,49.74 C729.42,49.8 731.28,49.8 731.94,49.8 C732.6,49.8 732.78,49.62 732.78,48.96 L732.78,36.3 L721.74,36.3 L721.74,30.3 L732.78,30.3 L732.78,25.68 L721.38,25.68 L721.38,19.8 L727.26,19.8 C726.96,17.94 726.3,15.42 725.46,13.56 L730.38,12.36 L722.28,12.36 L722.28,6.54 L732.54,6.54 C732,4.92 731.34,3.24 730.74,1.8 L737.1,0.3 C738,2.22 739.02,4.56 739.68,6.54 L749.16,6.54 L749.16,12.36 L741.6,12.36 L746.52,13.32 C745.56,15.6 744.72,17.94 743.82,19.8 L750.06,19.8 L750.06,25.68 L739.2,25.68 L739.2,30.3 L749.1,30.3 L749.1,36.3 Z M776.82,20.34 L776.82,26.94 L771.24,26.94 L771.24,56.4 L764.28,56.4 L764.28,26.94 L758.4,26.94 L758.4,27.36 C758.4,36.18 757.62,48.42 752.46,55.92 C751.32,54.66 748.5,52.44 747,51.66 C748.14,49.98 749.04,48 749.64,45.9 L744.9,48.9 C743.94,46.44 741.9,42.66 740.22,39.9 L744.9,37.32 C746.7,40.02 748.68,43.56 749.7,45.78 C751.56,39.9 751.74,33.12 751.74,27.36 L751.74,6.3 C758.34,5.1 765.6,3.24 769.92,1.2 L775.44,6.42 C770.46,8.34 764.28,9.84 758.4,10.92 L758.4,20.34 L776.82,20.34 Z M142.38,93.6600608 L142.38,100.260061 L111.78,100.260061 L111.78,93.6600608 L142.38,93.6600608 Z M111.96,134.580061 L111.96,134.100061 C111.84,134.280061 111.78,134.400061 111.78,134.580061 C111.42,133.020061 110.16,129.480061 109.26,127.500061 C110.52,127.140061 111.54,126.060061 112.74,124.380061 C113.76,123.000061 116.34,118.500061 118.32,113.520061 L107.76,113.520061 L107.76,106.860061 L146.28,106.860061 L146.28,113.520061 L126.96,113.520061 C124.92,117.960061 122.16,122.520061 119.52,126.360061 L133.98,125.220061 C132.48,122.580061 131.04,119.940061 129.66,117.600061 L135.6,114.900061 C138.9,120.420061 143.58,127.920061 145.8,132.420061 L139.38,135.720061 C138.84,134.460061 138.12,132.960061 137.34,131.340061 C117.3,133.260061 114.24,133.620061 111.96,134.580061 Z M107.7,100.620061 L102.66,105.720061 C100.44,103.560061 95.64,99.9000608 92.34,97.3200608 L97.02,92.8200608 C100.26,95.1000608 105.24,98.5200608 107.7,100.620061 Z M105.42,111.000061 L105.42,134.040061 C106.44,134.640061 107.7,135.540061 109.32,136.500061 C113.34,138.900061 118.68,139.200061 125.22,139.200061 C131.28,139.200061 141.36,138.660061 147.6,137.760061 C146.76,139.800061 145.5,143.520061 145.44,145.620061 C140.94,145.860061 131.46,146.220061 124.92,146.220061 C117.42,146.220061 112.62,145.500061 108.36,143.100061 C105.96,141.780061 103.92,139.980061 102.66,139.980061 C100.8,139.980061 97.92,143.700061 95.4,147.300061 L90.48,140.340061 C93.06,137.760061 95.82,135.660061 98.4,134.400061 L98.4,117.600061 L91.08,117.600061 L91.08,111.000061 L105.42,111.000061 Z M193.08,134.340061 L165.18,134.340061 L165.18,139.260061 L193.08,139.260061 L193.08,134.340061 Z M158.34,146.760061 L158.34,128.160061 L200.22,128.160061 L200.22,146.760061 L193.08,146.760061 L193.08,145.080061 L165.18,145.080061 L165.18,146.760061 L158.34,146.760061 Z M187.8,121.320061 L187.8,117.720061 L170.04,117.720061 L170.04,121.320061 L187.8,121.320061 Z M163.38,112.980061 L194.88,112.980061 L194.88,126.000061 L163.38,126.000061 L163.38,112.980061 Z M153.72,117.600061 L153.72,105.240061 L204.66,105.240061 L204.66,117.600061 L197.76,117.600061 L197.76,110.640061 L160.26,110.640061 L160.26,117.600061 L153.72,117.600061 Z M193.44,94.8000608 L205.56,94.8000608 L205.56,101.160061 L193.44,101.160061 L193.44,104.040061 L186.3,104.040061 L186.3,101.160061 L171.24,101.160061 L171.24,104.040061 L164.22,104.040061 L164.22,101.160061 L152.4,101.160061 L152.4,94.8000608 L164.22,94.8000608 L164.22,90.6600608 L171.24,90.6600608 L171.24,94.8000608 L186.3,94.8000608 L186.3,90.6600608 L193.44,90.6600608 L193.44,94.8000608 Z M234.42,91.3800608 L240.42,93.7200608 C238.44,96.4200608 236.58,99.1200608 235.02,100.980061 L230.46,98.9400608 C231.84,96.8400608 233.46,93.6000608 234.42,91.3800608 Z M223.02,117.540061 L223.02,112.140061 C220.26,114.900061 217.08,117.420061 214.08,119.040061 C213.3,117.480061 211.74,115.140061 210.42,113.820061 C213.96,112.380061 217.74,109.740061 220.56,106.800061 L211.68,106.800061 L211.68,101.160061 L216.36,101.160061 C215.88,99.1200608 214.5,96.0600608 213.18,93.7200608 L218.22,91.6200608 C219.84,93.8400608 221.34,96.9600608 221.82,99.0000608 L216.96,101.160061 L223.02,101.160061 L223.02,90.6000608 L229.62,90.6000608 L229.62,101.160061 L240.96,101.160061 L240.96,106.800061 L232.2,106.800061 C234.9,108.360061 238.26,110.340061 239.28,111.060061 L235.56,116.040061 C234.24,114.780061 231.9,112.800061 229.62,111.000061 L229.62,117.540061 L223.02,117.540061 Z M231.48,127.080061 L224.22,127.080061 C223.62,128.220061 223.02,129.300061 222.42,130.260061 C224.04,131.040061 225.72,131.880061 227.28,132.720061 C228.96,131.040061 230.4,129.180061 231.48,127.080061 Z M236.88,138.300061 L232.68,142.860061 C231.48,141.960061 229.92,140.880061 228.12,139.800061 C224.1,142.860061 219.3,145.020061 213.9,146.520061 C213.24,144.900061 211.86,142.380061 210.66,141.180061 C214.98,140.220061 219,138.660061 222.42,136.560061 C219.6,135.060061 216.6,133.680061 213.9,132.540061 C214.98,130.980061 216.12,129.120061 217.32,127.080061 L212.76,127.080061 L212.76,121.320061 L220.26,121.320061 C220.8,120.120061 221.28,118.980061 221.7,117.840061 L228,118.980061 C227.7,119.760061 227.34,120.540061 226.98,121.320061 L234.6,121.320061 L235.68,121.140061 L239.52,122.580061 C238.08,127.860061 235.68,132.180061 232.62,135.660061 C234.24,136.560061 235.68,137.460061 236.88,138.300061 Z M255.9,108.240061 L249.3,108.240061 C250.2,113.040061 251.4,117.660061 252.96,121.920061 C254.34,117.840061 255.3,113.340061 255.9,108.240061 Z M266.28,108.240061 L262.5,108.240061 C261.36,116.640061 259.56,123.660061 256.74,129.540061 C259.5,134.280061 263.16,138.060061 267.66,140.520061 C266.1,141.780061 264,144.360061 263.04,146.160061 C258.9,143.580061 255.6,140.160061 252.9,135.960061 C249.48,140.520061 245.16,144.120061 239.58,146.940061 C238.92,145.500061 237.06,142.500061 235.8,141.120061 C241.86,138.420061 246.3,134.640061 249.36,129.660061 C247.62,125.880061 246.3,121.680061 245.1,117.120061 C244.14,119.040061 243.06,120.840061 241.92,122.460061 C240.96,121.260061 238.26,118.920061 236.82,117.900061 C241.62,111.660061 244.26,101.520061 245.64,90.7800608 L252.12,91.7400608 C251.64,95.1000608 251.04,98.4600608 250.32,101.640061 L266.28,101.640061 L266.28,108.240061 Z M280.14,103.020061 L280.14,110.040061 L273.12,110.040061 L273.12,96.3000608 L295.56,96.3000608 C294.84,94.9200608 294.06,93.4800608 293.22,92.3400608 L300.36,90.1800608 C301.8,91.9800608 303.24,94.3800608 304.02,96.3000608 L324.66,96.3000608 L324.66,110.040061 L317.28,110.040061 L317.28,103.020061 L280.14,103.020061 Z M325.08,122.640061 L325.08,129.420061 L302.7,129.420061 L302.7,138.480061 C302.7,142.320061 301.8,144.240061 298.86,145.320061 C295.98,146.460061 292.14,146.520061 287.22,146.520061 C286.74,144.360061 285.36,141.180061 284.1,139.260061 C287.82,139.380061 292.32,139.380061 293.52,139.380061 C294.72,139.380061 295.08,139.140061 295.08,138.300061 L295.08,129.420061 L272.82,129.420061 L272.82,122.640061 L295.08,122.640061 L295.08,119.460061 C297.6,118.200061 300.12,116.400061 302.4,114.540061 L283.08,114.540061 L283.08,107.880061 L309.6,107.880061 L311.22,107.520061 L315.96,111.240061 C312.48,114.900061 307.74,118.740061 302.7,121.620061 L302.7,122.640061 L325.08,122.640061 Z M349.14,98.2200608 L345.42,103.560061 C342.78,101.520061 337.44,98.5800608 333.36,96.9600608 L336.9,92.1600608 C340.92,93.6000608 346.38,96.1800608 349.14,98.2200608 Z M349.2,105.000061 L350.4,111.120061 C344.76,113.220061 338.7,115.380061 333.78,117.060061 L331.62,110.520061 C336.12,109.320061 342.78,107.160061 349.2,105.000061 Z M379.86,134.760061 L372.42,134.760061 L372.42,125.460061 L345.84,125.460061 L345.84,135.420061 L338.82,135.420061 L338.82,118.980061 L379.86,118.980061 L379.86,134.760061 Z M355.62,127.020061 L362.58,127.020061 C360.48,137.460061 355.26,143.820061 334.2,146.760061 C333.72,145.140061 332.22,142.260061 331.02,140.760061 C350.04,138.720061 353.82,134.400061 355.62,127.020061 Z M359.28,138.420061 L363.42,133.380061 C370.26,135.120061 380.34,138.420061 385.62,140.760061 L381.18,146.400061 C376.32,144.120061 366.42,140.460061 359.28,138.420061 Z M376.68,100.980061 L370.92,100.980061 C370.74,101.580061 370.56,102.180061 370.38,102.720061 C373.44,107.640061 379.14,111.240061 386.34,112.740061 C384.9,114.000061 383.04,116.520061 382.2,118.320061 C376.08,116.460061 371.22,113.040061 367.8,108.420061 C365.04,112.800061 360.48,116.400061 352.56,118.920061 C351.9,117.360061 350.22,114.960061 348.9,113.760061 C358.86,111.000061 362.22,106.260061 363.84,100.980061 L359.16,100.980061 C357.48,103.560061 355.5,105.900061 352.86,108.060061 C351.78,106.560061 349.44,104.400061 347.94,103.620061 C352.62,100.080061 355.44,95.3400608 356.76,91.0800608 L363.48,92.1000608 C363.06,93.3000608 362.52,94.5600608 362.04,95.7600608 L379.08,95.7600608 L380.28,95.4600608 L385.5,96.7200608 C384.24,100.260061 382.68,104.220061 381.3,106.920061 L375.06,105.300061 C375.54,104.100061 376.14,102.600061 376.68,100.980061 Z M444.96,113.160061 L444.96,120.120061 L403.2,120.120061 L403.2,121.620061 C403.2,129.060061 402.06,140.340061 396.54,147.360061 C395.34,145.980061 392.16,143.160061 390.54,142.260061 C395.28,136.140061 395.7,127.560061 395.7,121.440061 L395.7,113.160061 L408.06,113.160061 C407.04,110.940061 405.36,108.060061 403.8,105.840061 L408.9,103.620061 L395.22,103.620061 L395.22,96.8400608 L415.86,96.8400608 C415.14,95.2200608 414.12,93.5400608 413.16,92.1600608 L420.54,90.3600608 C422.04,92.2800608 423.54,94.8600608 424.32,96.8400608 L443.7,96.8400608 L443.7,103.620061 L410.4,103.620061 C412.2,106.020061 414.24,109.080061 415.14,111.240061 L410.88,113.160061 L424.8,113.160061 C426.42,110.520061 428.22,106.560061 429.24,103.680061 L437.22,106.140061 C435.54,108.600061 433.8,111.060061 432.3,113.160061 L444.96,113.160061 Z M505.2,98.1600608 L505.2,105.120061 L452.58,105.120061 L452.58,98.1600608 L475.98,98.1600608 C475.14,96.1800608 474,94.0200608 472.92,92.2200608 L479.76,89.8200608 C481.38,92.4000608 483.36,95.8200608 484.14,98.1000608 L483.96,98.1600608 L505.2,98.1600608 Z M484.62,109.320061 L490.26,105.300061 C495.42,108.840061 502.38,114.120061 505.68,117.960061 L499.56,122.580061 C496.62,118.860061 489.96,113.220061 484.62,109.320061 Z M466.8,105.660061 L473.7,108.300061 C469.62,113.580061 463.14,119.040061 457.8,122.280061 C456.48,120.840061 453.78,118.260061 452.16,117.060061 C457.5,114.360061 463.32,109.980061 466.8,105.660061 Z M486.78,115.980061 L493.98,118.080061 C491.58,123.660061 488.4,128.340061 484.5,132.180061 C490.26,135.960061 497.46,138.540061 506.28,139.860061 C504.72,141.420061 502.86,144.360061 501.96,146.280061 C492.48,144.480061 484.98,141.420061 478.92,136.860061 C472.56,141.360061 464.82,144.420061 456,146.580061 C455.16,144.960061 453.06,141.780061 451.68,140.220061 C460.38,138.540061 467.76,135.960061 473.64,132.060061 C470.1,128.220061 467.16,123.600061 464.88,118.260061 L471.3,116.280061 C473.1,120.660061 475.68,124.560061 478.98,127.800061 C482.4,124.560061 485.04,120.660061 486.78,115.980061 Z M526.56,107.940061 L526.56,111.720061 L551.76,111.720061 L551.76,107.940061 L526.56,107.940061 Z M526.56,98.8800608 L526.56,102.600061 L551.76,102.600061 L551.76,98.8800608 L526.56,98.8800608 Z M530.64,121.080061 L563.82,121.080061 C563.82,121.080061 563.7,123.000061 563.58,123.900061 C562.32,136.860061 560.94,142.320061 558.96,144.300061 C557.52,145.860061 555.96,146.400061 554.1,146.580061 C552.42,146.760061 549.6,146.760061 546.6,146.700061 C546.54,144.900061 545.82,142.320061 544.74,140.640061 C547.26,140.880061 549.6,140.880061 550.68,140.880061 C551.76,140.880061 552.3,140.820061 552.9,140.160061 C554.04,139.080061 555.24,135.420061 556.08,127.320061 L550.92,127.320061 C547.8,135.360061 542.7,142.500061 537.18,147.060061 C535.98,145.860061 533.16,143.640061 531.54,142.680061 C536.58,139.080061 540.84,133.620061 543.54,127.320061 L538.38,127.320061 C533.94,134.760061 527.22,141.180061 520.5,145.320061 C519.36,143.880061 516.72,141.360061 515.22,140.220061 C521.1,137.280061 526.56,132.660061 530.34,127.320061 L525.12,127.320061 C522.18,130.140061 518.94,132.660061 515.82,134.580061 C514.62,133.260061 511.92,130.620061 510.42,129.540061 C515.88,126.660061 521.16,122.340061 524.82,117.420061 L519.54,117.420061 L519.54,93.1200608 L559.02,93.1200608 L559.02,117.420061 L533.16,117.420061 C532.38,118.680061 531.54,119.880061 530.64,121.080061 Z M626.22,119.580061 L626.22,126.840061 L602.64,126.840061 L602.64,146.640061 L595.2,146.640061 L595.2,126.840061 L571.86,126.840061 L571.86,119.580061 L595.2,119.580061 L595.2,101.400061 L574.98,101.400061 L574.98,94.3200608 L622.74,94.3200608 L622.74,101.400061 L602.64,101.400061 L602.64,119.580061 L626.22,119.580061 Z M578.64,105.240061 L585.18,103.320061 C587.16,107.160061 589.32,112.200061 589.98,115.560061 L583.02,117.720061 C582.42,114.540061 580.56,109.260061 578.64,105.240061 Z M613.68,117.600061 L607.44,115.800061 C609.36,112.320061 611.52,107.040061 612.66,103.140061 L620.28,105.060061 C618.12,109.680061 615.66,114.540061 613.68,117.600061 Z M671.46,127.080061 L646.02,127.080061 L646.02,136.680061 L671.46,136.680061 L671.46,127.080061 Z M638.7,146.580061 L638.7,120.240061 L679.14,120.240061 L679.14,146.520061 L671.46,146.520061 L671.46,143.520061 L646.02,143.520061 L646.02,146.580061 L638.7,146.580061 Z M663.84,99.8400608 L669.42,96.1200608 C674.94,101.280061 682.08,108.660061 685.2,113.700061 L679.14,118.080061 C678.36,116.760061 677.28,115.200061 676.02,113.520061 C644.16,115.080061 639.9,115.200061 636.72,116.280061 C636.36,114.840061 635.22,111.300061 634.38,109.440061 C635.94,109.020061 637.38,107.880061 639.36,105.960061 C641.46,104.100061 648,96.8400608 652.08,89.6400608 L659.28,92.7000608 C655.5,98.2800608 650.76,103.620061 646.2,108.000061 L670.8,107.220061 C668.46,104.580061 666.06,102.060061 663.84,99.8400608 Z" id="path-22"></path>
        <filter x="-126.9%" y="-664.7%" width="353.7%" height="1437.5%" filterUnits="objectBoundingBox" id="filter-23">
            <feOffset dx="0" dy="6" in="SourceAlpha" result="shadowOffsetOuter1"></feOffset>
            <feGaussianBlur stdDeviation="327.5" in="shadowOffsetOuter1" result="shadowBlurOuter1"></feGaussianBlur>
            <feColorMatrix values="0 0 0 0 0.00701209478   0 0 0 0 0   0 0 0 0 0.310773324  0 0 0 0.723393794 0" type="matrix" in="shadowBlurOuter1"></feColorMatrix>
        </filter>
    </defs>
    <g id="banner" stroke="none" stroke-width="1" fill="none" fill-rule="evenodd">
        <g id="画板" transform="translate(0.000000, -50.000000)">
            <g id="编组-5备份-2" transform="translate(0.000000, 50.000000)">
                <g id="编组-5备份">
                    <mask id="mask-3" fill="white">
                        <use xlink:href="#path-2"></use>
                    </mask>
                    <use id="矩形备份-2" fill="url(#radialGradient-1)" xlink:href="#path-2"></use>
                    <g id="编组-7" opacity="0.100000001" mask="url(#mask-3)" fill-rule="nonzero">
                        <g transform="translate(-177.882353, -186.941176)">
                            <polygon id="路径-2备份-2" fill="url(#linearGradient-4)" points="112.941176 271.705882 2196.70588 271.705882 2196.70588 269.705882 112.941176 269.705882"></polygon>
                            <polygon id="路径-2备份" fill="url(#linearGradient-4)" points="112.941176 222.294118 2196.70588 222.294118 2196.70588 220.294118 112.941176 220.294118"></polygon>
                            <polygon id="路径-2备份-3" fill="url(#linearGradient-4)" points="112.941176 319.705882 2196.70588 319.705882 2196.70588 317.705882 112.941176 317.705882"></polygon>
                            <polygon id="路径-2备份-5" fill="url(#linearGradient-4)" points="112.941176 370.529412 2196.70588 370.529412 2196.70588 368.529412 112.941176 368.529412"></polygon>
                            <polygon id="路径-2备份-4" fill="url(#linearGradient-4)" points="112.941176 418.529412 2196.70588 418.529412 2196.70588 416.529412 112.941176 416.529412"></polygon>
                            <polygon id="路径-2备份-7" fill="url(#linearGradient-4)" points="112.941176 469.352941 2196.70588 469.352941 2196.70588 467.352941 112.941176 467.352941"></polygon>
                            <polygon id="路径-2备份-6" fill="url(#linearGradient-4)" points="112.941176 517.352941 2196.70588 517.352941 2196.70588 515.352941 112.941176 515.352941"></polygon>
                            <polygon id="路径-2备份-9" fill="url(#linearGradient-4)" points="112.941176 568.176471 2196.70588 568.176471 2196.70588 566.176471 112.941176 566.176471"></polygon>
                            <polygon id="路径-2备份-8" fill="url(#linearGradient-4)" points="112.941176 616.176471 2196.70588 616.176471 2196.70588 614.176471 112.941176 614.176471"></polygon>
                            <polygon id="路径-2备份-11" fill="url(#linearGradient-4)" points="112.941176 667 2196.70588 667 2196.70588 665 112.941176 665"></polygon>
                            <polygon id="路径-2备份-10" fill="url(#linearGradient-4)" points="112.941176 715 2196.70588 715 2196.70588 713 112.941176 713"></polygon>
                            <polygon id="路径-2备份-13" fill="url(#linearGradient-4)" points="112.941176 765.823529 2196.70588 765.823529 2196.70588 763.823529 112.941176 763.823529"></polygon>
                            <polygon id="路径-2备份-12" fill="url(#linearGradient-4)" points="112.941176 813.823529 2196.70588 813.823529 2196.70588 811.823529 112.941176 811.823529"></polygon>
                            <polygon id="路径-2备份-29" fill="url(#linearGradient-5)" points="862.647059 137.294118 862.647059 899.647059 864.647059 899.647059 864.647059 137.294118"></polygon>
                            <polygon id="路径-2备份-28" fill="url(#linearGradient-5)" points="765.235294 137.294118 765.235294 899.647059 767.235294 899.647059 767.235294 137.294118"></polygon>
                            <polygon id="路径-2备份-27" fill="url(#linearGradient-5)" points="814.647059 137.294118 814.647059 899.647059 816.647059 899.647059 816.647059 137.294118"></polygon>
                            <polygon id="路径-2备份-26" fill="url(#linearGradient-5)" points="717.235294 137.294118 717.235294 899.647059 719.235294 899.647059 719.235294 137.294118"></polygon>
                            <polygon id="路径-2备份-25" fill="url(#linearGradient-5)" points="666.411765 137.294118 666.411765 899.647059 668.411765 899.647059 668.411765 137.294118"></polygon>
                            <polygon id="路径-2备份-24" fill="url(#linearGradient-5)" points="618.411765 137.294118 618.411765 899.647059 620.411765 899.647059 620.411765 137.294118"></polygon>
                            <polygon id="路径-2备份-23" fill="url(#linearGradient-5)" points="567.588235 137.294118 567.588235 899.647059 569.588235 899.647059 569.588235 137.294118"></polygon>
                            <polygon id="路径-2备份-22" fill="url(#linearGradient-5)" points="519.588235 137.294118 519.588235 899.647059 521.588235 899.647059 521.588235 137.294118"></polygon>
                            <polygon id="路径-2备份-21" fill="url(#linearGradient-5)" points="468.764706 137.294118 468.764706 899.647059 470.764706 899.647059 470.764706 137.294118"></polygon>
                            <polygon id="路径-2备份-20" fill="url(#linearGradient-5)" points="420.764706 137.294118 420.764706 899.647059 422.764706 899.647059 422.764706 137.294118"></polygon>
                            <polygon id="路径-2备份-19" fill="url(#linearGradient-5)" points="369.941176 137.294118 369.941176 899.647059 371.941176 899.647059 371.941176 137.294118"></polygon>
                            <polygon id="路径-2备份-18" fill="url(#linearGradient-5)" points="321.941176 137.294118 321.941176 899.647059 323.941176 899.647059 323.941176 137.294118"></polygon>
                            <polygon id="路径-2备份-17" fill="url(#linearGradient-5)" points="271.117647 137.294118 271.117647 899.647059 273.117647 899.647059 273.117647 137.294118"></polygon>
                            <polygon id="路径-2备份-14" fill="url(#linearGradient-5)" points="223.117647 137.294118 223.117647 899.647059 225.117647 899.647059 225.117647 137.294118"></polygon>
                            <polygon id="路径-2备份-29" fill="url(#linearGradient-5)" points="1602.41176 137.294118 1602.41176 899.647059 1604.41176 899.647059 1604.41176 137.294118"></polygon>
                            <polygon id="路径-2备份-28" fill="url(#linearGradient-5)" points="1505 137.294118 1505 899.647059 1507 899.647059 1507 137.294118"></polygon>
                            <polygon id="路径-2备份-27" fill="url(#linearGradient-5)" points="1554.41176 137.294118 1554.41176 899.647059 1556.41176 899.647059 1556.41176 137.294118"></polygon>
                            <polygon id="路径-2备份-26" fill="url(#linearGradient-5)" points="1457 137.294118 1457 899.647059 1459 899.647059 1459 137.294118"></polygon>
                            <polygon id="路径-2备份-25" fill="url(#linearGradient-5)" points="1406.17647 137.294118 1406.17647 899.647059 1408.17647 899.647059 1408.17647 137.294118"></polygon>
                            <polygon id="路径-2备份-24" fill="url(#linearGradient-5)" points="1358.17647 137.294118 1358.17647 899.647059 1360.17647 899.647059 1360.17647 137.294118"></polygon>
                            <polygon id="路径-2备份-23" fill="url(#linearGradient-5)" points="1307.35294 137.294118 1307.35294 899.647059 1309.35294 899.647059 1309.35294 137.294118"></polygon>
                            <polygon id="路径-2备份-22" fill="url(#linearGradient-5)" points="1259.35294 137.294118 1259.35294 899.647059 1261.35294 899.647059 1261.35294 137.294118"></polygon>
                            <polygon id="路径-2备份-21" fill="url(#linearGradient-5)" points="1208.52941 137.294118 1208.52941 899.647059 1210.52941 899.647059 1210.52941 137.294118"></polygon>
                            <polygon id="路径-2备份-20" fill="url(#linearGradient-5)" points="1160.52941 137.294118 1160.52941 899.647059 1162.52941 899.647059 1162.52941 137.294118"></polygon>
                            <polygon id="路径-2备份-19" fill="url(#linearGradient-5)" points="1109.70588 137.294118 1109.70588 899.647059 1111.70588 899.647059 1111.70588 137.294118"></polygon>
                            <polygon id="路径-2备份-18" fill="url(#linearGradient-5)" points="1061.70588 137.294118 1061.70588 899.647059 1063.70588 899.647059 1063.70588 137.294118"></polygon>
                            <polygon id="路径-2备份-17" fill="url(#linearGradient-5)" points="1010.88235 137.294118 1010.88235 899.647059 1012.88235 899.647059 1012.88235 137.294118"></polygon>
                            <polygon id="路径-2备份-14" fill="url(#linearGradient-5)" points="962.882353 137.294118 962.882353 899.647059 964.882353 899.647059 964.882353 137.294118"></polygon>
                            <polygon id="路径-2备份-16" fill="url(#linearGradient-5)" points="912.058824 137.294118 912.058824 899.647059 914.058824 899.647059 914.058824 137.294118"></polygon>
                            <polygon id="路径-2备份-24" fill="url(#linearGradient-5)" points="2095.11765 137.294118 2095.11765 899.647059 2097.11765 899.647059 2097.11765 137.294118"></polygon>
                            <polygon id="路径-2备份-23" fill="url(#linearGradient-5)" points="2044.29412 137.294118 2044.29412 899.647059 2046.29412 899.647059 2046.29412 137.294118"></polygon>
                            <polygon id="路径-2备份-22" fill="url(#linearGradient-5)" points="1996.29412 137.294118 1996.29412 899.647059 1998.29412 899.647059 1998.29412 137.294118"></polygon>
                            <polygon id="路径-2备份-21" fill="url(#linearGradient-5)" points="1945.47059 137.294118 1945.47059 899.647059 1947.47059 899.647059 1947.47059 137.294118"></polygon>
                            <polygon id="路径-2备份-20" fill="url(#linearGradient-5)" points="1897.47059 137.294118 1897.47059 899.647059 1899.47059 899.647059 1899.47059 137.294118"></polygon>
                            <polygon id="路径-2备份-19" fill="url(#linearGradient-5)" points="1846.64706 137.294118 1846.64706 899.647059 1848.64706 899.647059 1848.64706 137.294118"></polygon>
                            <polygon id="路径-2备份-18" fill="url(#linearGradient-5)" points="1798.64706 137.294118 1798.64706 899.647059 1800.64706 899.647059 1800.64706 137.294118"></polygon>
                            <polygon id="路径-2备份-17" fill="url(#linearGradient-5)" points="1747.82353 137.294118 1747.82353 899.647059 1749.82353 899.647059 1749.82353 137.294118"></polygon>
                            <polygon id="路径-2备份-14" fill="url(#linearGradient-5)" points="1699.82353 137.294118 1699.82353 899.647059 1701.82353 899.647059 1701.82353 137.294118"></polygon>
                            <polygon id="路径-2备份-16" fill="url(#linearGradient-5)" points="1649 137.294118 1649 899.647059 1651 899.647059 1651 137.294118"></polygon>
                        </g>
                    </g>
                    <polygon id="多边形备份-7" fill="url(#linearGradient-6)" opacity="0.100000001" mask="url(#mask-3)" points="74.8235294 71.4117647 107.83438 90.4705882 107.83438 128.588235 74.8235294 147.647059 41.8126787 128.588235 41.8126787 90.4705882"></polygon>
                    <g id="编组-6" opacity="0.600000024" mask="url(#mask-3)">
                        <g transform="translate(280.000000, 71.000000)">
                            <path d="M163,205 L162.999,232.176 L175,232.176471 L175,336.352941 L162.999,336.352 L163,359 L155,359 L154.999,336.352 L143,336.352941 L143,232.176471 L154.999,232.176 L155,205 L163,205 Z" id="形状结合" fill="url(#linearGradient-7)" opacity="0.400000006"></path>
                            <path d="M20,255 L19.999,282.176 L32,282.176471 L32,386.352941 L19.999,386.352 L20,409 L12,409 L11.999,386.352 L0,386.352941 L0,282.176471 L11.999,282.176 L12,255 L20,255 Z" id="形状结合备份" fill="url(#linearGradient-8)" opacity="0.400000006"></path>
                            <path d="M289,249 L289,289.588 L301,289.588235 L301,445.176471 L289,445.176 L289,479 L281,479 L281,445.176 L269,445.176471 L269,289.588235 L281,289.588 L281,249 L289,249 Z" id="形状结合备份-3" fill="url(#linearGradient-9)" opacity="0.400000006"></path>
                            <path d="M681,214 L680.999,236.631 L693,236.631579 L693,324.894737 L680.999,324.894 L681,343 L673,343 L672.999,324.894 L661,324.894737 L661,236.631579 L672.999,236.631 L673,214 L681,214 Z" id="形状结合备份-5" fill="url(#linearGradient-10)" opacity="0.400000006"></path>
                            <path d="M223,52 L222.999,122.102 L235,122.102273 L235,391.204545 L222.999,391.204 L223,450 L215,450 L214.999,391.204 L203,391.204545 L203,122.102273 L214.999,122.102 L215,52 L223,52 Z" id="形状结合备份-4" fill="url(#linearGradient-11)" opacity="0.400000006"></path>
                            <path d="M98,118 L98,169.924 L110,169.924242 L110,370.848485 L98,370.848 L98,416 L90,416 L90,370.848 L78,370.848485 L78,169.924242 L90,169.924 L90,118 L98,118 Z" id="形状结合备份-6" fill="url(#linearGradient-12)" opacity="0.400000006"></path>
                            <path d="M358,113 L357.999,144.542 L370,144.542169 L370,270.710843 L357.999,270.71 L358,300 L350,300 L349.999,270.71 L338,270.710843 L338,144.542169 L349.999,144.542 L350,113 L358,113 Z" id="形状结合备份-7" fill="url(#linearGradient-13)" opacity="0.400000006"></path>
                            <path d="M750,185 L749.999,203.042 L762,203.042553 L762,275.212766 L749.999,275.212 L750,291 L742,291 L741.999,275.212 L730,275.212766 L730,203.042553 L741.999,203.042 L742,185 L750,185 Z" id="形状结合备份-8" fill="url(#linearGradient-14)" opacity="0.400000006"></path>
                            <path d="M424,176 L424,207.542 L436,207.542169 L436,333.710843 L424,333.71 L424,363 L416,363 L416,333.71 L404,333.710843 L404,207.542169 L416,207.542 L416,176 L424,176 Z" id="形状结合备份-13" fill="url(#linearGradient-15)" opacity="0.400000006"></path>
                            <path d="M816,222 L815.999,253.542 L828,253.542169 L828,381.963855 L815.999,381.963 L816,409 L808,409 L807.999,381.963 L796,381.963855 L796,253.542169 L807.999,253.542 L808,222 L816,222 Z" id="形状结合备份-17" fill="url(#linearGradient-13)" opacity="0.400000006"></path>
                            <path d="M490,240 L490,271.542 L502,271.542169 L502,397.710843 L490,397.71 L490,427 L482,427 L482,397.71 L470,397.710843 L470,271.542169 L482,271.542 L482,240 L490,240 Z" id="形状结合备份-14" fill="url(#linearGradient-15)" opacity="0.400000006"></path>
                            <path d="M882,118 L881.999,160.88 L894,160.880734 L894,327.889908 L881.999,327.889 L882,364 L874,364 L873.999,327.889 L862,327.889908 L862,160.880734 L873.999,160.88 L874,118 L882,118 Z" id="形状结合备份-18" fill="url(#linearGradient-16)" opacity="0.400000006"></path>
                            <path d="M555,185 L555,216.542 L567,216.542169 L567,342.710843 L555,342.71 L555,372 L547,372 L547,342.71 L535,342.710843 L535,216.542169 L547,216.542 L547,185 L555,185 Z" id="形状结合备份-15" fill="url(#linearGradient-15)" opacity="0.400000006"></path>
                            <path d="M947,226 L947,244.042 L959,244.042553 L959,316.212766 L947,316.212 L947,332 L939,332 L939,316.212 L927,316.212766 L927,244.042553 L939,244.042 L939,226 L947,226 Z" id="形状结合备份-19" fill="url(#linearGradient-14)" opacity="0.400000006"></path>
                            <path d="M1013,226 L1013,244.042 L1025,244.042553 L1025,316.212766 L1013,316.212 L1013,332 L1005,332 L1005,316.212 L993,316.212766 L993,244.042553 L1005,244.042 L1005,226 L1013,226 Z" id="形状结合备份-21" fill="url(#linearGradient-14)" opacity="0.400000006"></path>
                            <path d="M1079,102 L1078.999,142.588 L1091,142.588235 L1091,298.176471 L1078.999,298.176 L1079,332 L1071,332 L1070.999,298.176 L1059,298.176471 L1059,142.588235 L1070.999,142.588 L1071,102 L1079,102 Z" id="形状结合备份-22" fill="url(#linearGradient-17)" opacity="0.400000006"></path>
                            <path d="M1144,0 L1144,65.426 L1156,65.4268293 L1156,315.853659 L1144,315.853 L1144,370 L1136,370 L1136,315.853 L1124,315.853659 L1124,65.4268293 L1136,65.426 L1136,0 L1144,0 Z" id="形状结合备份-23" fill="url(#linearGradient-18)" opacity="0.400000006"></path>
                            <path d="M1210,163 L1210,192.293 L1222,192.293333 L1222,307.213333 L1210,307.213 L1210,332 L1202,332 L1202,307.213 L1190,307.213333 L1190,192.293333 L1202,192.293 L1202,163 L1210,163 Z" id="形状结合备份-24" fill="url(#linearGradient-19)" opacity="0.400000006"></path>
                            <path d="M1349,174 L1349,203.293 L1361,203.293333 L1361,318.213333 L1349,318.213 L1349,343 L1341,343 L1341,318.213 L1329,318.213333 L1329,203.293333 L1341,203.293 L1341,174 L1349,174 Z" id="形状结合备份-26" fill="url(#linearGradient-19)" opacity="0.400000006"></path>
                            <path d="M1280,70 L1280,122.007 L1292,122.007463 L1292,327.776119 L1280,327.776 L1280,373 L1272,373 L1272,327.776 L1260,327.776119 L1260,122.007463 L1272,122.007 L1272,70 L1280,70 Z" id="形状结合备份-25" fill="url(#linearGradient-20)" opacity="0.602004278"></path>
                            <path d="M615,57 L615,102.128 L627,102.128205 L627,280.384615 L615,280.384 L615,321 L607,321 L607,280.384 L595,280.384615 L595,102.128205 L607,102.128 L607,57 L615,57 Z" id="形状结合备份-16" fill="url(#linearGradient-21)" opacity="0.400000006"></path>
                            <path d="M615,57 L615,102.128 L627,102.128205 L627,280.384615 L615,280.384 L615,321 L607,321 L607,280.384 L595,280.384615 L595,102.128205 L607,102.128 L607,57 L615,57 Z" id="形状结合备份-20" fill="url(#linearGradient-21)" opacity="0.400000006"></path>
                        </g>
                    </g>
                    <g id="编组-8" mask="url(#mask-3)" fill-rule="nonzero">
                        <g transform="translate(571.882353, 213.882353)">
                            <g id="全球第一家公链社群自治创新运营数字资产交易平台" fill="none">
                                <use fill="black" fill-opacity="1" filter="url(#filter-23)" xlink:href="#path-22"></use>
                                <use fill="#FFFFFF" xlink:href="#path-22"></use>
                            </g>
                            <path d="M104.648,214.28 L106.692,214.28 C106.664,215.26 106.636,216.66 106.496,218.312 C106.916,221.56 108.624,233.488 118.508,237.912 C118.004,238.332 117.444,238.948 117.164,239.48 C109.968,236.092 107.028,228.868 105.684,223.604 C104.452,229.316 101.512,235.896 94.456,239.564 C94.148,239.088 93.532,238.528 93,238.136 C104.648,232.312 104.564,218.48 104.648,214.28 Z M132.648,214.28 L134.692,214.28 C134.664,215.26 134.636,216.66 134.496,218.312 C134.916,221.56 136.624,233.488 146.508,237.912 C146.004,238.332 145.444,238.948 145.164,239.48 C137.968,236.092 135.028,228.868 133.684,223.604 C132.452,229.316 129.512,235.896 122.456,239.564 C122.148,239.088 121.532,238.528 121,238.136 C132.648,232.312 132.564,218.48 132.648,214.28 Z M173.752,216.688 L173.752,218.312 L149.504,218.312 L149.504,216.688 L160.928,216.688 C160.62,215.932 160.228,215.064 159.864,214.364 L161.684,214 C162.16,214.784 162.692,215.848 163,216.688 L173.752,216.688 Z M154.908,221.616 L154.908,224.304 L168.432,224.304 L168.432,221.616 L154.908,221.616 Z M170.364,225.732 L153.06,225.732 L153.06,220.216 L170.364,220.216 L170.364,225.732 Z M174.06,232.62 L174.06,234.272 L162.58,234.272 L162.58,237.744 C162.58,238.808 162.244,239.256 161.348,239.536 C160.424,239.788 158.856,239.76 156.336,239.76 C156.224,239.284 155.944,238.668 155.692,238.192 C157.652,238.276 159.5,238.248 159.976,238.22 C160.508,238.192 160.648,238.08 160.648,237.688 L160.648,234.272 L149.252,234.272 L149.252,232.62 L160.648,232.62 L160.648,230.856 C162.636,230.436 164.848,229.792 166.668,229.064 L151.856,229.064 L151.856,227.524 L169.188,227.524 L169.188,227.496 L169.664,227.496 L170.084,227.412 L171.344,228.476 C168.964,229.848 165.66,230.996 162.58,231.752 L162.58,232.62 L174.06,232.62 Z M184.784,230.1 L184.784,214.616 L186.632,214.616 L186.632,239.732 L184.784,239.732 L184.784,231.864 C179.548,233.796 178.792,234.188 178.288,234.608 C178.12,234.132 177.756,233.32 177.476,232.9 C177.868,232.676 178.456,232.144 178.456,231.024 L178.456,217.304 L180.276,217.304 L180.276,231.612 L184.784,230.1 Z M191.84,221.42 L191.728,221.728 C192.54,225.032 193.688,228.14 195.228,230.8 C196.656,228.224 197.58,225.088 198.224,221.42 L191.84,221.42 Z M202.256,221.42 L200.072,221.42 C199.288,225.872 198.112,229.54 196.32,232.536 C198,234.944 200.016,236.876 202.452,238.08 C202.06,238.444 201.444,239.088 201.164,239.592 C198.84,238.304 196.908,236.428 195.284,234.104 C193.576,236.4 191.42,238.248 188.704,239.732 C188.508,239.312 187.892,238.556 187.5,238.192 C190.384,236.792 192.568,234.888 194.22,232.48 C192.792,230.044 191.616,227.188 190.748,224.108 C190.048,225.592 189.264,226.908 188.396,228.028 C188.144,227.636 187.444,226.852 187.08,226.516 C189.46,223.632 190.972,219.068 191.784,214.196 L193.66,214.504 C193.324,216.268 192.904,218.004 192.428,219.656 L202.256,219.656 L202.256,221.42 Z M223.676,214.196 L225.524,214.812 C224.488,216.492 223.256,218.424 222.248,219.684 L220.708,219.096 C221.716,217.78 223.004,215.68 223.676,214.196 Z M229.668,219.684 L229.668,221.364 L205.532,221.364 L205.532,219.684 L212.868,219.684 C212.308,218.368 211.104,216.38 209.984,214.952 L211.552,214.252 C212.756,215.708 213.988,217.612 214.548,218.928 L213.064,219.684 L229.668,219.684 Z M229.584,226.516 L228.66,228.028 C226.756,226.936 223.06,225.256 220.232,224.192 L221.1,222.876 C223.9,223.884 227.652,225.452 229.584,226.516 Z M213.344,222.764 L214.632,223.688 C212.756,225.312 209.34,227.44 206.848,228.616 C206.624,228.168 206.12,227.552 205.728,227.188 C208.136,226.236 211.636,224.304 213.344,222.764 Z M210.376,229.988 L210.376,237.156 L214.072,237.156 L214.072,229.988 L210.376,229.988 Z M219.504,229.988 L215.808,229.988 L215.808,237.156 L219.504,237.156 L219.504,229.988 Z M224.992,229.988 L221.24,229.988 L221.24,237.156 L224.992,237.156 L224.992,229.988 Z M226.756,237.156 L230.284,237.156 L230.284,238.836 L205,238.836 L205,237.156 L208.696,237.156 L208.696,228.364 L226.756,228.364 L226.756,237.156 Z M269.4,242.56 L278.024,215.428 L279.732,215.428 L271.08,242.56 L269.4,242.56 Z M330.552,214.28 L332.596,214.28 C332.568,215.26 332.54,216.66 332.4,218.312 C332.82,221.56 334.528,233.488 344.412,237.912 C343.908,238.332 343.348,238.948 343.068,239.48 C335.872,236.092 332.932,228.868 331.588,223.604 C330.356,229.316 327.416,235.896 320.36,239.564 C320.052,239.088 319.436,238.528 318.904,238.136 C330.552,232.312 330.468,218.48 330.552,214.28 Z M358.552,214.28 L360.596,214.28 C360.568,215.26 360.54,216.66 360.4,218.312 C360.82,221.56 362.528,233.488 372.412,237.912 C371.908,238.332 371.348,238.948 371.068,239.48 C363.872,236.092 360.932,228.868 359.588,223.604 C358.356,229.316 355.416,235.896 348.36,239.564 C348.052,239.088 347.436,238.528 346.904,238.136 C358.552,232.312 358.468,218.48 358.552,214.28 Z M396.38,218.9 L396.38,216.52 L386.832,216.52 L386.832,218.9 L396.38,218.9 Z M396.38,222.736 L396.38,220.3 L386.832,220.3 L386.832,222.736 L396.38,222.736 Z M398.256,215.064 L398.256,224.164 L385.04,224.164 L385.04,215.064 L398.256,215.064 Z M380.7,214.28 L382.464,214.952 C380.868,217.304 378.18,219.908 375.744,221.56 C375.52,221.112 375.072,220.412 374.736,220.048 C376.948,218.592 379.468,216.268 380.7,214.28 Z M381.176,220.412 L382.772,221.028 C382.128,222.176 381.344,223.352 380.504,224.444 L380.504,239.676 L378.712,239.676 L378.712,226.572 C377.592,227.776 376.444,228.896 375.268,229.792 C375.128,229.428 374.596,228.476 374.26,228.056 C376.808,226.18 379.496,223.324 381.176,220.412 Z M385.152,233.404 L386.468,232.536 C387.784,233.684 389.324,235.364 390.024,236.484 L388.624,237.492 C387.952,236.372 386.44,234.636 385.152,233.404 Z M400.132,230.324 L400.132,231.976 L395.904,231.976 L395.904,237.576 C395.904,238.64 395.652,239.144 394.868,239.424 C394.056,239.732 392.74,239.732 390.612,239.732 C390.556,239.2 390.248,238.528 389.996,238.024 C391.648,238.08 393.076,238.08 393.468,238.052 C393.916,238.024 394.028,237.912 394.028,237.548 L394.028,231.976 L382.604,231.976 L382.604,230.324 L394.028,230.324 L394.028,227.804 L383.248,227.804 L383.248,226.208 L399.656,226.208 L399.656,227.804 L395.904,227.804 L395.904,230.324 L400.132,230.324 Z M410.716,214.784 L412.676,215.316 C410.8,219.964 407.776,224.052 404.472,226.74 C404.136,226.348 403.38,225.676 402.904,225.34 C406.236,222.904 409.092,219.04 410.716,214.784 Z M406.768,224.752 L424.156,224.752 C424.156,224.752 424.156,225.424 424.128,225.676 C423.708,234.244 423.316,237.408 422.336,238.5 C421.776,239.116 421.188,239.34 420.236,239.396 C419.312,239.452 417.576,239.424 415.812,239.312 C415.756,238.752 415.532,237.996 415.196,237.464 C417.072,237.632 418.808,237.66 419.48,237.66 C420.096,237.66 420.376,237.576 420.684,237.324 C421.412,236.596 421.804,233.824 422.168,226.6 L414.244,226.6 C413.488,232.144 411.696,237.212 404.612,239.788 C404.388,239.312 403.856,238.584 403.464,238.22 C410.1,236.008 411.668,231.444 412.284,226.6 L406.768,226.6 L406.768,224.752 Z M418.584,215.4 L420.264,214.728 C422,218.536 425.416,222.764 428.3,224.92 C427.824,225.284 427.18,225.984 426.816,226.488 C423.904,224.024 420.516,219.516 418.584,215.4 Z M434.292,229.876 L440.704,228.952 C440.676,229.456 440.704,230.184 440.76,230.576 C433.032,231.78 432.052,232.004 431.464,232.312 C431.38,231.92 431.072,230.996 430.82,230.492 C431.464,230.352 432.136,229.708 433.088,228.672 C433.62,228.14 434.852,226.684 436.224,224.836 C432.388,225.284 431.716,225.424 431.268,225.648 C431.156,225.228 430.848,224.304 430.624,223.8 C431.156,223.688 431.688,223.044 432.332,222.092 C433.06,221.168 435.3,217.584 436.644,214.196 L438.52,214.952 C437.064,217.976 435.244,221.056 433.424,223.464 L437.484,223.1 C438.156,222.12 438.8,221.112 439.388,220.104 L441.068,221.112 C439.024,224.276 436.672,227.356 434.292,229.876 Z M431.1,238.08 L430.736,236.148 C433.2,235.728 436.98,234.944 440.62,234.188 L440.788,235.952 C437.316,236.708 433.76,237.464 431.1,238.08 Z M449.552,235.98 L456.244,235.98 L456.244,237.856 L441.012,237.856 L441.012,235.98 L447.592,235.98 L447.592,218.704 L441.376,218.704 L441.376,216.856 L455.656,216.856 L455.656,218.704 L449.552,218.704 L449.552,235.98 Z M495.304,242.56 L503.928,215.428 L505.636,215.428 L496.984,242.56 L495.304,242.56 Z M556.456,214.28 L558.5,214.28 C558.472,215.26 558.444,216.66 558.304,218.312 C558.724,221.56 560.432,233.488 570.316,237.912 C569.812,238.332 569.252,238.948 568.972,239.48 C561.776,236.092 558.836,228.868 557.492,223.604 C556.26,229.316 553.32,235.896 546.264,239.564 C545.956,239.088 545.34,238.528 544.808,238.136 C556.456,232.312 556.372,218.48 556.456,214.28 Z M584.456,214.28 L586.5,214.28 C586.472,215.26 586.444,216.66 586.304,218.312 C586.724,221.56 588.432,233.488 598.316,237.912 C597.812,238.332 597.252,238.948 596.972,239.48 C589.776,236.092 586.836,228.868 585.492,223.604 C584.26,229.316 581.32,235.896 574.264,239.564 C573.956,239.088 573.34,238.528 572.808,238.136 C584.456,232.312 584.372,218.48 584.456,214.28 Z M618.504,231.024 L618.504,232.816 L601.172,232.816 L601.172,231.024 L618.504,231.024 Z M624.188,225.144 L624.104,226.068 C623.292,234.076 622.508,237.24 621.248,238.444 C620.576,239.116 619.904,239.284 618.756,239.368 C617.776,239.396 615.788,239.34 613.828,239.228 C613.772,238.668 613.52,237.912 613.128,237.38 C615.312,237.576 617.44,237.604 618.224,237.604 C618.924,237.604 619.344,237.576 619.68,237.268 C620.716,236.428 621.444,233.488 622.144,226.908 L605.68,226.908 L604.14,226.88 C605.008,223.828 606.156,218.592 606.828,214.812 L608.676,215.008 C608.508,215.988 608.312,217.052 608.088,218.116 L623.824,218.116 L623.824,219.908 L607.696,219.908 C607.304,221.756 606.912,223.576 606.52,225.144 L624.188,225.144 Z M634.884,220.748 L633.288,221.812 C632.504,220.272 630.6,217.92 629.004,216.212 L630.46,215.288 C632.056,216.94 634.016,219.264 634.884,220.748 Z M633.484,228.084 L634.884,229.232 C633.568,232.228 631.748,235.812 630.236,238.416 L628.668,237.296 C630.04,235.056 632.028,231.304 633.484,228.084 Z M645.104,220.412 L645.104,223.436 C645.104,224.612 645.076,225.844 644.936,227.076 L649.584,227.076 L649.584,220.412 L645.104,220.412 Z M654.26,228.868 L646.14,228.868 C647.512,233.32 650.2,236.624 654.372,238.052 C653.952,238.444 653.42,239.144 653.14,239.676 C648.772,237.912 646.028,234.356 644.516,229.456 C643.648,233.236 641.352,236.988 635.752,239.76 C635.528,239.34 634.912,238.64 634.464,238.276 C639.952,235.784 641.996,232.312 642.724,228.868 L636.004,228.868 L636.004,227.076 L643.004,227.076 C643.144,225.816 643.172,224.584 643.172,223.436 L643.172,220.412 L637.488,220.412 L637.488,218.648 L643.172,218.648 L643.172,214.252 L645.104,214.252 L645.104,218.648 L651.376,218.648 L651.376,227.076 L654.26,227.076 L654.26,228.868 Z M662.184,218.284 L660.7,218.284 C659.888,219.572 658.992,220.72 658.068,221.644 C657.704,221.364 656.92,220.832 656.5,220.58 C658.348,218.984 659.944,216.548 660.896,214.084 L662.66,214.56 C662.352,215.26 662.016,215.988 661.652,216.688 L669.016,216.688 L669.016,218.284 L664.088,218.284 C664.592,219.208 665.096,220.272 665.32,220.972 L663.668,221.616 C663.416,220.72 662.828,219.376 662.184,218.284 Z M670.5,227.916 L670.5,230.576 C672.74,233.124 677.192,235.84 682.4,237.016 C682.036,237.436 681.504,238.192 681.224,238.64 C676.716,237.436 672.908,235.028 670.5,232.676 L670.5,239.676 L668.568,239.676 L668.568,232.648 C665.824,235.448 661.848,237.66 657.956,238.752 C657.676,238.276 657.172,237.576 656.752,237.212 C661.372,236.092 666.104,233.488 668.568,230.38 L668.568,227.916 L661.4,227.916 L661.4,233.376 L659.468,233.376 L659.468,226.264 L668.568,226.264 L668.568,223.968 L657.452,223.968 L657.452,222.316 L668.568,222.316 L668.568,221.588 C668.204,221.28 667.504,220.748 667.028,220.496 C668.988,218.956 670.668,216.632 671.592,214.084 L673.384,214.532 C673.104,215.26 672.768,215.988 672.404,216.688 L681.7,216.688 L681.7,218.284 L675.652,218.284 C676.268,219.18 676.828,220.216 677.108,220.972 L675.428,221.56 C675.148,220.664 674.42,219.376 673.692,218.284 L671.452,218.284 C670.92,219.068 670.332,219.852 669.716,220.496 L670.5,220.496 L670.5,222.316 L681.336,222.316 L681.336,223.968 L670.5,223.968 L670.5,226.264 L679.712,226.264 L679.712,231.528 C679.712,232.452 679.544,232.844 678.816,233.124 C678.172,233.376 677.108,233.376 675.512,233.376 C675.4,232.9 675.12,232.34 674.868,231.892 C676.044,231.948 677.108,231.92 677.416,231.92 C677.752,231.92 677.836,231.808 677.836,231.528 L677.836,227.916 L670.5,227.916 Z" id="人人享收益/人人得分红/人人与决策" fill="#99B1FF"></path>
                        </g>
                    </g>
                </g>
            </g>
        </g>
    </g>
</svg>