<svg xmlns="http://www.w3.org/2000/svg" width="14" height="18"><path d="M12.9 15.65H1.1A1.087 1.087 0 0 1 0 14.57v-1.19a1.121 1.121 0 0 1 .28-.759l1.36-1.88V7.226a6.372 6.372 0 0 1 1.48-4.189 5.15 5.15 0 0 1 1.56-1.213.684.684 0 0 0 .36-.4A2.093 2.093 0 0 1 7 0a2.093 2.093 0 0 1 1.96 1.428.684.684 0 0 0 .36.4 5.15 5.15 0 0 1 1.56 1.213 6.372 6.372 0 0 1 1.48 4.189v3.5l1.36 1.88a1.121 1.121 0 0 1 .28.759v1.2a1.087 1.087 0 0 1-1.09 1.081zm-.01-2.27l-1.36-1.88a1.113 1.113 0 0 1-.28-.761V7.226a5.187 5.187 0 0 0-1.2-3.417 3.957 3.957 0 0 0-1.33-1.014q-.1-.042-.18-.078a.989.989 0 0 1-.62-.728.87.87 0 0 0-.04-.158.945.945 0 0 0-.67-.633H7.2a.878.878 0 0 0-.38 0h-.03a.945.945 0 0 0-.67.633.87.87 0 0 0-.04.158.989.989 0 0 1-.62.728q-.1.037-.18.078a3.957 3.957 0 0 0-1.33 1.014 5.187 5.187 0 0 0-1.2 3.417v3.514a1.114 1.114 0 0 1-.28.761L1.1 13.38V14.558l5.9.006 5.9-.006zM6.02 16.54a1.426 1.426 0 0 0 .82.351h.32a1.415 1.415 0 0 0 1.17-.848h1.13a2.568 2.568 0 0 1-.76 1.3 2.484 2.484 0 0 1-1.51.643c-.06 0-.13.018-.2.018s-.13-.013-.2-.018a2.485 2.485 0 0 1-1.51-.643 2.568 2.568 0 0 1-.76-1.3h1.13a1.483 1.483 0 0 0 .35.5zm0 0" fill="#1d1d1d" fill-rule="evenodd"/></svg>