<svg xmlns="http://www.w3.org/2000/svg" width="40" height="36" viewBox="0 0 40 36">
  <metadata><?xpacket begin="﻿" id="W5M0MpCehiHzreSzNTczkc9d"?>
<x:xmpmeta xmlns:x="adobe:ns:meta/" x:xmptk="Adobe XMP Core 5.6-c142 79.160924, 2017/07/13-01:06:39        ">
   <rdf:RDF xmlns:rdf="http://www.w3.org/1999/02/22-rdf-syntax-ns#">
      <rdf:Description rdf:about=""/>
   </rdf:RDF>
</x:xmpmeta>
                                                                                                    
                                                                                                    
                                                                                                    
                                                                                                    
                                                                                                    
                                                                                                    
                                                                                                    
                                                                                                    
                                                                                                    
                                                                                                    
                                                                                                    
                                                                                                    
                                                                                                    
                                                                                                    
                                                                                                    
                                                                                                    
                                                                                                    
                                                                                                    
                                                                                                    
                                                                                                    
                           
<?xpacket end="w"?></metadata>
<defs>
    <style>
      .cls-1 {
        fill: #fff;
        fill-rule: evenodd;
      }
    </style>
  </defs>
  <path id="相机" class="cls-1" d="M526.25,920.143H519l-2.25-3.857a2.221,2.221,0,0,0-2-1.286h-9.5a2.221,2.221,0,0,0-2,1.286L501,920.143h-7.25A3.9,3.9,0,0,0,490,924v23.143A3.9,3.9,0,0,0,493.75,951h32.5a3.9,3.9,0,0,0,3.75-3.857V924a3.9,3.9,0,0,0-3.75-3.857h0ZM510,945.857a11.576,11.576,0,1,1,11.25-11.571A11.367,11.367,0,0,1,510,945.857h0Zm0,0-7.5-11.571a7.5,7.5,0,1,0,7.5-7.715,7.61,7.61,0,0,0-7.5,7.715h0Zm0,0" transform="translate(-490 -915)"/>
</svg>
