<svg xmlns="http://www.w3.org/2000/svg" width="16" height="18"><path d="M12.4 7.77L7.23 7.73a.574.574 0 0 0-.5.623.583.583 0 0 0 .5.63l5.18.043a.574.574 0 0 0 .5-.623.584.584 0 0 0-.5-.631zm0 2.552l-5.18-.043a.575.575 0 0 0-.5.623.584.584 0 0 0 .5.631l5.18.042a.572.572 0 0 0 .5-.622.584.584 0 0 0-.5-.631zM12.3 0H6.16a2.518 2.518 0 0 0-2.45 2.571h-1.25A2.528 2.528 0 0 0 0 5.143v10.285A2.528 2.528 0 0 0 2.46 18h7.37a2.521 2.521 0 0 0 2.46-2.572h1.25A2.527 2.527 0 0 0 16 12.856v-9zm0 1.273h.01l2.45 2.578h-1.23a1.26 1.26 0 0 1-1.23-1.286v-1.292zM9.83 16.7H2.47a1.261 1.261 0 0 1-1.23-1.286V5.145a1.261 1.261 0 0 1 1.23-1.286h1.24v9a2.519 2.519 0 0 0 2.45 2.572h4.9a1.257 1.257 0 0 1-1.23 1.279zm4.92-3.844a1.26 1.26 0 0 1-1.23 1.286H6.15a1.26 1.26 0 0 1-1.23-1.286V2.56a1.261 1.261 0 0 1 1.23-1.286h4.9v1.28a2.527 2.527 0 0 0 2.46 2.572h1.25v7.74z" fill="#2174FF" fill-rule="evenodd"/></svg>