<svg xmlns="http://www.w3.org/2000/svg" width="30" height="30"><path d="M28.35 1.8H24.9V.3a.3.3 0 0 0-.3-.3H5.4a.3.3 0 0 0-.3.3v1.5H1.65A1.651 1.651 0 0 0 0 3.45V9a6.172 6.172 0 0 0 5.182 6.08 9.612 9.612 0 0 0 8.468 8.26v3.95H6.3a1.2 1.2 0 0 0-1.2 1.2v1.2a.3.3 0 0 0 .3.3h19.2a.3.3 0 0 0 .3-.3v-1.2a1.2 1.2 0 0 0-1.2-1.2h-7.35v-3.95a9.61 9.61 0 0 0 8.467-8.26A6.172 6.172 0 0 0 30 9V3.45a1.651 1.651 0 0 0-1.65-1.65zM2.7 9V4.5h2.4v7.78A3.439 3.439 0 0 1 2.7 9zm19.5 4.8a6.9 6.9 0 0 1-6.9 6.9h-.6a6.9 6.9 0 0 1-6.9-6.9V2.7h14.4v11.1zM27.3 9a3.439 3.439 0 0 1-2.4 3.28V4.5h2.4V9zm0 0" fill="#ffd83b" fill-rule="evenodd"/></svg>