<?xml version="1.0" standalone="no"?><!DOCTYPE svg PUBLIC "-//W3C//DTD SVG 1.1//EN" "http://www.w3.org/Graphics/SVG/1.1/DTD/svg11.dtd"><svg t="1540801325054" class="icon" style="" viewBox="0 0 1024 1024" version="1.1" xmlns="http://www.w3.org/2000/svg" p-id="1186" xmlns:xlink="http://www.w3.org/1999/xlink" width="200" height="200"><defs><style type="text/css"></style></defs><path d="M257.716084 225.930659c26.322505 0 47.677882-21.3564 47.677882-47.677882L305.393967 51.110051c0-26.322505-21.3564-47.677882-47.677882-47.677882-26.322505 0-47.678906 21.355377-47.678906 47.677882l0 127.142725C210.038202 204.574259 231.394602 225.930659 257.716084 225.930659zM984.240973 148.737556 875.262956 148.737556l2.270716 29.515221c0 61.442374-49.806359 111.248733-111.248733 111.248733-61.444421 0-111.249757-49.806359-111.249757-111.248733l2.269693-29.515221L366.695125 148.737556l2.270716 29.515221c0 61.442374-49.806359 111.248733-111.24771 111.248733-61.443397 0-111.249757-49.806359-111.249757-111.248733l2.270716-29.515221L39.758004 148.737556c-26.323529 0-36.326347 10.002818-36.326347 36.326347L3.431657 972.887902c0 26.322505 21.3564 47.678906 47.677882 47.678906l921.779897 0c26.323529 0 47.678906-21.3564 47.678906-47.678906L1020.568343 185.063903C1020.568343 158.741397 1010.564501 148.737556 984.240973 148.737556zM911.588279 911.587767 112.410698 911.587767 112.410698 403.02096l799.177582 0L911.588279 911.587767 911.588279 911.587767zM766.284939 225.930659c26.322505 0 47.677882-21.3564 47.677882-47.677882L813.962821 51.110051c0-26.322505-21.355377-47.677882-47.677882-47.677882-26.323529 0-47.678906 21.3564-47.678906 47.677882l0 127.142725C718.606033 204.574259 739.96141 225.930659 766.284939 225.930659zM294.042431 620.980064c40.120766 0 72.65167-32.56672 72.65167-72.653717 0-40.157605-32.530904-72.652693-72.65167-72.652693-40.121789 0-72.652693 32.495088-72.652693 72.652693C221.389738 588.413344 253.919618 620.980064 294.042431 620.980064zM512.000512 620.980064c40.120766 0 72.65167-32.56672 72.65167-72.653717 0-40.157605-32.530904-72.652693-72.65167-72.652693-40.121789 0-72.652693 32.495088-72.652693 72.652693C439.347818 588.413344 471.877699 620.980064 512.000512 620.980064zM729.957569 620.980064c40.121789 0 72.652693-32.56672 72.652693-72.653717 0-40.157605-32.530904-72.652693-72.652693-72.652693-40.122813 0-72.652693 32.495088-72.652693 72.652693C657.304875 588.413344 689.834756 620.980064 729.957569 620.980064zM294.042431 802.609751c40.120766 0 72.65167-32.565696 72.65167-72.65167 0-40.158628-32.530904-72.653717-72.65167-72.653717-40.121789 0-72.652693 32.495088-72.652693 72.653717C221.389738 770.044054 253.919618 802.609751 294.042431 802.609751zM512.000512 802.609751c40.120766 0 72.65167-32.565696 72.65167-72.65167 0-40.158628-32.530904-72.653717-72.65167-72.653717-40.121789 0-72.652693 32.495088-72.652693 72.653717C439.347818 770.044054 471.877699 802.609751 512.000512 802.609751zM729.957569 802.609751c40.121789 0 72.652693-32.565696 72.652693-72.65167 0-40.158628-32.530904-72.653717-72.652693-72.653717-40.122813 0-72.652693 32.495088-72.652693 72.653717C657.304875 770.044054 689.834756 802.609751 729.957569 802.609751z" p-id="1187" fill="#8d8d8d"></path></svg>