<svg xmlns="http://www.w3.org/2000/svg" width="20" height="20"><path d="M10 15.882a5.9 5.9 0 1 1 0-11.794 5.9 5.9 0 1 1 0 11.794zm0 0a5.9 5.9 0 1 1 0-11.794 5.9 5.9 0 1 1 0 11.794zm-7.5-5.85l.04-.95H.73A.731.731 0 0 0 0 9.81v.313a.785.785 0 0 0 .73.768h1.8a6.169 6.169 0 0 1-.04-.858zm1.64-4.675a7.815 7.815 0 0 1 1.22-1.225l-.63-.635a.7.7 0 0 0-1.05 0l-.18.18a.687.687 0 0 0 0 1.043zm11.77 0l.6-.68a.685.685 0 0 0 0-1.043l-.22-.227a.7.7 0 0 0-1.05 0l-.64.635a11.639 11.639 0 0 1 1.32 1.316zM10 2.496l.9.045V.726A.731.731 0 0 0 10.19 0h-.3a.786.786 0 0 0-.77.726v1.86a6.06 6.06 0 0 1 .9-.091zm9.22 6.59h-1.76a6.8 6.8 0 0 1 .04.9 5.828 5.828 0 0 1-.04.857h1.76a.775.775 0 0 0 .77-.771v-.31a.782.782 0 0 0-.77-.676zm-15.1 5.572l-.6.635a.7.7 0 0 0 0 1.043l.23.227a.7.7 0 0 0 1.05 0l.63-.635a5.723 5.723 0 0 1-1.31-1.27zm11.82-.09a5.966 5.966 0 0 1-1.32 1.316l.64.635a.685.685 0 0 0 1.04 0l.28-.272a.7.7 0 0 0 0-1.043zM10 17.46a5.336 5.336 0 0 1-.85-.045v1.815a.769.769 0 0 0 .77.771h.26a.787.787 0 0 0 .73-.771v-1.816a6.111 6.111 0 0 1-.91.045zm-.01.01" fill="#eaeaea" fill-rule="evenodd"/></svg>