<svg xmlns="http://www.w3.org/2000/svg" width="17" height="13"><path d="M12.1 6.4l4.9 3.76v-7.5zm-1.95 1.5a2.78 2.78 0 0 1-3.32 0l-1.02-.8-5.8 4.45a1.629 1.629 0 0 0 .56 1.02 1.864 1.864 0 0 0 .49.29 1.9 1.9 0 0 0 .67.13h13.52a1.916 1.916 0 0 0 .83-.2 1.752 1.752 0 0 0 .46-.35 1.558 1.558 0 0 0 .43-.89L11.2 7.1zM0 2.65v7.5L4.9 6.4zm0 0L6.74 6.4l.83.64a1.56 1.56 0 0 0 1.86 0l.83-.64.93-.7 5.76-4.42A1.719 1.719 0 0 0 15.26 0H1.74A1.719 1.719 0 0 0 .05 1.27L5.82 5.7zm0 0" fill="#2174FF" fill-rule="evenodd"/></svg>