<?xml version="1.0" encoding="UTF-8"?>
<svg width="20px" height="20px" viewBox="0 0 20 20" version="1.1" xmlns="http://www.w3.org/2000/svg" xmlns:xlink="http://www.w3.org/1999/xlink">
    <!-- Generator: Sketch 56.2 (81672) - https://sketch.com -->
    <title>facebook_cir</title>
    <desc>Created with Sketch.</desc>
    <g id="Page-1" stroke="none" stroke-width="1" fill="none" fill-rule="evenodd">
        <g id="头像" transform="translate(-586.000000, -418.000000)" fill="#2174FF" fill-rule="nonzero">
            <g id="facebook_cir" transform="translate(586.000000, 418.000000)">
                <path d="M10.0000116,20.0000233 C4.4687552,20.0000233 0,15.5312681 0,10.0000116 C0,4.4687552 4.4687552,0 10.0000116,0 C15.5312681,0 20.0000233,4.4687552 20.0000233,10.0000116 C20.0000233,15.5312681 15.5312681,20.0000233 10.0000116,20.0000233 Z M7.37500858,8.37500975 L7.37500858,9.93750575 L8.50000989,9.93750575 L8.50000989,15.3750179 L10.5937623,15.3750179 L10.5937623,9.93750575 L12.2500143,9.93750575 L12.3750086,8.37500975 L10.5937623,8.37500975 L10.5937623,7.15625833 C10.5937623,6.75000785 10.9687628,6.59375767 11.4062633,6.59375767 C11.8437638,6.59375767 12.3125143,6.71875782 12.3125143,6.71875782 L12.5937647,5.12500596 C12.5937647,5.12500596 12.000014,4.93750575 10.5937623,4.93750575 C9.71876131,4.93750575 9.21876073,5.25000611 8.84376029,5.71875665 C8.50000989,6.15625716 8.46875985,6.875008 8.46875985,7.34375855 L8.46875985,8.40625978 L7.37500858,8.40625978 L7.37500858,8.37500975 Z" id="形状"></path>
            </g>
        </g>
    </g>
</svg>