<svg xmlns="http://www.w3.org/2000/svg" width="15" height="15"><path d="M13.125 15H1.875A1.876 1.876 0 0 1 0 13.12V1.87A1.874 1.874 0 0 1 1.875 0h11.25A1.875 1.875 0 0 1 15 1.87v11.25A1.877 1.877 0 0 1 13.125 15zm.937-13.13a.936.936 0 0 0-.937-.93H1.875a.936.936 0 0 0-.938.93v11.25a.938.938 0 0 0 .938.94h11.25a.938.938 0 0 0 .937-.94V1.87zm-1.406 5.16a.469.469 0 0 1-.469-.47l.015-3.08L9.02 6.66 8.357 6l3.187-3.2H8.437a.47.47 0 0 1 0-.94h4.206a.462.462 0 0 1 .334.15.393.393 0 0 1 .148.32v4.22a.469.469 0 0 1-.469.47zm-6.094 6.1H2.357a.456.456 0 0 1-.335-.14.392.392 0 0 1-.147-.32V8.44a.469.469 0 1 1 .937 0l-.015 3.08L5.98 8.34l.663.66-3.187 3.2h3.107a.469.469 0 0 1 .469.47.461.461 0 0 1-.469.46zm0 0" fill="#8d8d8d" fill-rule="evenodd"/></svg>