<svg xmlns="http://www.w3.org/2000/svg" width="20" height="20"><path d="M10 0a10.006 10.006 0 1 0 6.15 17.884 10.264 10.264 0 0 0 1.81-1.827A10 10 0 0 0 10 0zm6.24 16.243a8.757 8.757 0 0 1-2.27 1.641 5.848 5.848 0 0 1-.54.251 8.86 8.86 0 0 1-6.87 0q-.27-.115-.54-.25a8.879 8.879 0 0 1-2.26-1.641l-.1-.09c.12-.056.28-.112.47-.178l.5-.188.9-.385 1.37-.58.6-.163a.6.6 0 0 0 .19-.092 2.017 2.017 0 0 0 .6-.773c.02-.03.03-.06.05-.088s.01-.03.02-.047l.15-.3.03-.064a.656.656 0 0 0 .06-.273v-.006c0-.024-.01-.05-.01-.074v-.02c0-.02-.01-.037-.01-.056a.05.05 0 0 1-.01-.036l-.03-.06a.031.031 0 0 0-.01-.027.53.53 0 0 0-.1-.161 4.918 4.918 0 0 1-1.23-2.816 3.307 3.307 0 0 1-.02-.445 9.61 9.61 0 0 1 .04-.964c.18-2.057.98-2.8 1.82-3.07a3.221 3.221 0 0 1 .95-.126 2.829 2.829 0 0 1 1.3.27c.82.416 1.5 1.443 1.5 3.89a5 5 0 0 1-.61 2.358 4.465 4.465 0 0 1-.64.9.879.879 0 0 0-.11.161.626.626 0 0 0-.06.27v.064c.01.012 0 .024.01.036v.03c.01.022.01.043.02.065q.015.045.03.087l.03.064a2.993 2.993 0 0 0 .81 1.207.7.7 0 0 0 .2.092l.6.163 1.18.5.2.082.9.384.5.188.47.178-.1.09zm.95-1.114a4.534 4.534 0 0 0-.9-.387l-.43-.157-.9-.382c-.03-.01-.05-.023-.08-.035l-1.34-.568-.08-.026-.47-.13a2.09 2.09 0 0 1-.19-.323l.37-.525a6.277 6.277 0 0 0 .94-3.275c0-2.26-.56-3.625-1.36-4.427A3.758 3.758 0 0 0 10 3.857c-1.7 0-3.7.778-4.06 4.287a10.779 10.779 0 0 0-.06 1.178 2.2 2.2 0 0 0 .01.257 5.172 5.172 0 0 0 .05.556c.03.24.08.477.13.712l.14.463c0 .01.01.018.01.027l.03.074a6.122 6.122 0 0 0 .93 1.711c0 .01-.01.023-.01.035a.231.231 0 0 0-.04.062c0 .01-.01.018-.01.027a.251.251 0 0 0-.04.07l-.03.043v.013c-.02.022-.03.043-.05.064v.01l-.47.128a.47.47 0 0 0-.08.026l-1.42.6-.9.382-.42.157a4.534 4.534 0 0 0-.9.387 8.914 8.914 0 0 1-.95-1.693 8.835 8.835 0 1 1 16.27 0 8.871 8.871 0 0 1-.94 1.693zm0 0" fill="#eaeaea" fill-rule="evenodd"/></svg>