<?xml version="1.0" encoding="UTF-8"?>
<svg width="15px" height="14px" viewBox="0 0 15 14" version="1.1" xmlns="http://www.w3.org/2000/svg" xmlns:xlink="http://www.w3.org/1999/xlink">
    <!-- Generator: Sketch 56.2 (81672) - https://sketch.com -->
    <title>收藏-未选中</title>
    <desc>Created with Sketch.</desc>
    <g id="Page-1" stroke="none" stroke-width="1" fill="none" fill-rule="evenodd">
        <g id="限价交易" transform="translate(-20.000000, -192.000000)" fill="#585A68">
            <g id="收藏-未选中" transform="translate(20.000000, 192.000000)">
                <path d="M7.5,11.1593755 L3.9130427,13.3575715 C3.67759571,13.5018605 3.36975884,13.4279624 3.2254698,13.1925154 C3.15501055,13.0775419 3.13397764,12.9389833 3.16714363,12.8082797 L4.18526786,8.79596085 L0.968983723,6.14591488 C0.755864698,5.97031621 0.72544844,5.65519826 0.901047109,5.44207923 C0.988398351,5.33606356 1.11551877,5.27065502 1.25256032,5.26121165 L5.45138287,4.97187554 L7.03770595,1.12196098 C7.14290744,0.866643023 7.4351662,0.744949588 7.69048415,0.850151081 C7.81368682,0.900915647 7.91152948,0.998758305 7.96229405,1.12196098 L9.54861713,4.97187554 L13.7474397,5.26121165 C14.0229288,5.28019529 14.2308675,5.51891259 14.2118839,5.79440167 C14.2024405,5.93144322 14.137032,6.05856364 14.0310163,6.14591488 L10.8147321,8.79596085 L11.8328564,12.8082797 C11.9007749,13.0759393 11.7388527,13.3479792 11.4711931,13.4158977 C11.3404895,13.4490637 11.2019308,13.4280307 11.0869573,13.3575715 L7.5,11.1593755 Z" id="星形"></path>
            </g>
        </g>
    </g>
</svg>