<svg xmlns="http://www.w3.org/2000/svg" width="14" height="14" viewBox="0 0 14 13.969"><path d="M3.4 8.26v4.928a.758.758 0 0 0 .73.781h.4a.758.758 0 0 0 .73-.781V9.13L3.8 7.566a.781.781 0 0 0-.4.693zm4.94-2.193L6.8 7.695v5.492a.758.758 0 0 0 .73.781h.4a.758.758 0 0 0 .73-.781v-6.47a.79.79 0 0 0-.33-.651zM0 4.63v8.556a.758.758 0 0 0 .73.781h.4a.758.758 0 0 0 .73-.781V5.5L.4 3.937a.794.794 0 0 0-.39.694zm13.93.3c0-.317-.35-.476-.65-.164l-.95 1.014L9.1 2.223a.46.46 0 0 0-.23-.128L8.8 2.02a.391.391 0 0 0-.58-.009l-2.9 2.993L.68.092a.393.393 0 0 0-.58 0v1.552l5 5.27a.4.4 0 0 0 .59 0l.43-.47a.425.425 0 0 0 .11-.2l2.32-2.4L11.3 6.89l-.9.977c-.3.312-.15.69.15.7l2.8.066a.787.787 0 0 0 .66-.7zm-2.7 4.966h-.3a.752.752 0 0 0-.73.781v2.51a.752.752 0 0 0 .73.781h.3a.758.758 0 0 0 .73-.781v-2.51a.758.758 0 0 0-.73-.781zm0 0" fill="#fff" fill-rule="evenodd"/></svg>