<svg xmlns="http://www.w3.org/2000/svg" width="20" height="20"><path d="M1.43 4.08L3.8 1.75A.818.818 0 0 0 3.77.6.85.85 0 0 0 2.61.58L.24 2.92a.821.821 0 0 0 0 1.16.858.858 0 0 0 1.19 0m18.32-1.5L17.4.24a.845.845 0 0 0-1.18 0 .815.815 0 0 0 0 1.17l2.36 2.33a.824.824 0 0 0 .59.24.837.837 0 0 0 .84-.82.834.834 0 0 0-.25-.59m-3.27 14.5a.776.776 0 0 0-.24-.16 8.973 8.973 0 0 0 2.99-6.68 9.2 9.2 0 0 0-18.39 0 9 9 0 0 0 2.95 6.65.717.717 0 0 0-.34.19l-1.53 1.5a.815.815 0 0 0 0 1.17.845.845 0 0 0 1.18 0l1.53-1.5a.78.78 0 0 0 .23-.52 9.275 9.275 0 0 0 10.22.09.809.809 0 0 0 .22.43l1.53 1.5a.849.849 0 0 0 .59.24.867.867 0 0 0 .59-.24.815.815 0 0 0 0-1.17zm-3.72-3.17a3.152 3.152 0 0 1-2.13.96v1.4H9.45v-1.38a3.075 3.075 0 0 1-2.87-2.66l1.82-.47a1.579 1.579 0 0 0 1.69 1.52 1.3 1.3 0 0 0 .98-.32 1.094 1.094 0 0 0 .31-.79.845.845 0 0 0-.31-.72 5.936 5.936 0 0 0-1.4-.62 9.3 9.3 0 0 1-1.52-.66 2.507 2.507 0 0 1-.89-.91 2.679 2.679 0 0 1-.34-1.37 2.972 2.972 0 0 1 .61-1.84 2.725 2.725 0 0 1 1.92-1V3.97h1.18v1.07a2.844 2.844 0 0 1 2.56 2.21l-1.62.66a1.645 1.645 0 0 0-1.48-1.36 1.093 1.093 0 0 0-.8.31.988.988 0 0 0-.3.73.848.848 0 0 0 .29.68 5.129 5.129 0 0 0 1.25.58 11.664 11.664 0 0 1 1.65.71 2.675 2.675 0 0 1 .96.93 2.732 2.732 0 0 1 .35 1.39 2.909 2.909 0 0 1-.73 2.03z" fill="#717273" fill-rule="evenodd"/></svg>