<svg xmlns="http://www.w3.org/2000/svg" width="22" height="22"><path d="M16.14 13.84l-2.5 2.8a.756.756 0 0 1-.55.24.731.731 0 0 1-.55-.21.786.786 0 0 1-.04-1.1l1.34-1.5H6.45a.777.777 0 0 1 0-1.55h9.13a.777.777 0 0 1 .55 1.3m-10.3-5.7l2.5-2.8a.756.756 0 0 1 .55-.24.737.737 0 0 1 .55.2.786.786 0 0 1 .06 1.1l-1.34 1.5h7.37a.756.756 0 0 1 .75.78.71.71 0 0 1-.22.54.8.8 0 0 1-.53.23H6.38a.787.787 0 0 1-.69-.48.773.773 0 0 1 .15-.82M11 0a11 11 0 1 0 11 11A10.994 10.994 0 0 0 11 0" fill="#717273" fill-rule="evenodd"/></svg>