<svg xmlns="http://www.w3.org/2000/svg" width="20" height="20" viewBox="0 0 20 19.97"><path d="M6.9 1.04H1.72A1.72 1.72 0 0 0 0 2.76v5.16a1.72 1.72 0 0 0 1.72 1.72H6.9A1.718 1.718 0 0 0 8.6 7.92V2.76a1.718 1.718 0 0 0-1.71-1.72m12.6 3.08L15.84.47a1.72 1.72 0 0 0-2.43 0l-.5.5-3.15 3.14a1.742 1.742 0 0 0-.5 1.22 1.638 1.638 0 0 0 .5 1.21l.5.5 3.15 3.15a1.72 1.72 0 0 0 2.43 0L19 7.06l.5-.5a1.72 1.72 0 0 0 0-2.43M6.9 11.36H1.72A1.726 1.726 0 0 0 0 13.08v5.17a1.72 1.72 0 0 0 1.72 1.72H6.9a1.718 1.718 0 0 0 1.71-1.72v-5.17a1.724 1.724 0 0 0-1.71-1.72m10.32 0h-5.17a1.733 1.733 0 0 0-1.72 1.72v5.17a1.726 1.726 0 0 0 1.72 1.72h5.17a1.72 1.72 0 0 0 1.72-1.72v-5.17a1.726 1.726 0 0 0-1.72-1.72" fill="#717273" fill-rule="evenodd"/></svg>