<svg xmlns="http://www.w3.org/2000/svg" width="20" height="20"><path d="M14.8 6.36H8.43a.905.905 0 1 1 0-1.81h6.36a.905.905 0 1 1 0 1.81m0 4.55H8.43a.91.91 0 1 1 0-1.82h6.36a.91.91 0 0 1 0 1.82m0 4.54H8.43a.905.905 0 1 1 0-1.81h6.36a.905.905 0 1 1 0 1.81m-9.34-9.1a.905.905 0 1 1 .91-.91.907.907 0 0 1-.91.91m0 4.55a.91.91 0 1 1 .91-.91.912.912 0 0 1-.91.91m0 4.54a.906.906 0 0 1 0-1.81.905.905 0 1 1 0 1.81M18.18 0H1.8A1.81 1.81 0 0 0 0 1.81V18.2A1.81 1.81 0 0 0 1.81 20H18.2A1.81 1.81 0 0 0 20 18.19V1.8A1.818 1.818 0 0 0 18.18 0" fill="#717273" fill-rule="evenodd"/></svg>