<svg xmlns="http://www.w3.org/2000/svg" width="15" height="14" viewBox="0 0 14.031 14"><path d="M10.638 14a.968.968 0 0 1-.518-.15L7.293 12.3a.478.478 0 0 0-.279-.08.781.781 0 0 0-.28.06L3.92 13.85a.919.919 0 0 1-.532.15 1.174 1.174 0 0 1-.881-.42 1.2 1.2 0 0 1-.252-.97L2.8 9.34a.661.661 0 0 0-.182-.55L.352 6.5a1.213 1.213 0 0 1-.293-1.23 1.181 1.181 0 0 1 .923-.82l3.135-.48a.621.621 0 0 0 .462-.34L5.98.66a1.121 1.121 0 0 1 2.043 0l1.4 2.97a.622.622 0 0 0 .462.34l3.135.48a1.187 1.187 0 0 1 .924.81 1.219 1.219 0 0 1-.28 1.22L11.4 8.8a.62.62 0 0 0-.182.55l.532 3.26a1.173 1.173 0 0 1-.252.96 1.087 1.087 0 0 1-.868.44zm0 0" fill="#dfdfdf" fill-rule="evenodd"/></svg>