<svg xmlns="http://www.w3.org/2000/svg" width="20" height="20"><path d="M17.05 2.928A10.153 10.153 0 0 0 9.99 0a10 10 0 1 0 7.06 2.928m-1 13.143a8.607 8.607 0 0 1-12.13 0 8.574 8.574 0 0 1 0-12.143 8.607 8.607 0 0 1 12.13 0 8.574 8.574 0 0 1 0 12.143M10.7 9.285V5.643a.671.671 0 0 0-.71-.715.679.679 0 0 0-.72.715v3.642H5.63a.671.671 0 0 0-.71.715.724.724 0 0 0 .71.714h3.64v3.643a.742.742 0 0 0 .72.714.671.671 0 0 0 .71-.714v-3.643h3.64a.715.715 0 1 0 0-1.429H10.7zm0 0" fill="#fff" fill-rule="evenodd"/></svg>