<?xml version="1.0" encoding="UTF-8"?>
<svg width="38px" height="38px" viewBox="0 0 38 38" version="1.1" xmlns="http://www.w3.org/2000/svg" xmlns:xlink="http://www.w3.org/1999/xlink">
    <!-- Generator: Sketch 56.2 (81672) - https://sketch.com -->
    <title>头像</title>
    <desc>Created with Sketch.</desc>
    <g id="Page-1" stroke="none" stroke-width="1" fill="none" fill-rule="evenodd">
        <g id="登录-copy-3备份-10" transform="translate(-1585.000000, -21.000000)" fill-rule="nonzero">
            <g id="头像" transform="translate(1585.000000, 21.000000)">
                <path d="M0.171171273,18.9315552 L0.171171273,18.9315527 C0.171171273,29.2926136 8.57047988,37.6919222 18.9315408,37.6919222 C29.2926016,37.6919222 37.6919102,29.2926136 37.6919102,18.9315527 C37.6919102,18.9315525 37.6919102,18.9315523 37.6919102,18.9315521 L37.6919102,18.9315521 C37.6919102,8.57049124 29.2926016,0.171182641 18.9315408,0.171182641 C8.57047988,0.171182641 0.171171273,8.57049124 0.171171273,18.9315521 L0.171171273,18.9315552 Z" id="路径" fill="#FFFFFF"></path>
                <path d="M18.9315552,0.171171273 C8.59279711,0.171171273 0.20540063,8.55856775 0.20540063,18.9315408 C0.20540063,29.3045138 8.59279711,37.6576954 18.9315552,37.6576954 C29.2703134,37.6576954 37.6919247,29.2702989 37.6919247,18.8973259 C37.6919247,8.52435287 29.3045282,0.171171273 18.9315552,0.171171273 Z M28.1748062,26.5658016 C28.1748062,28.9964351 23.5189473,29.5441849 19.1712079,29.5441849 C14.8234684,29.5441849 10.1333575,28.9964351 10.1333575,26.5658016 L10.1333575,25.9153514 C10.1333575,24.1351681 13.3513786,22.3207513 16.0901242,21.3279594 C16.29553,21.2594906 17.2198536,20.7459761 16.7063409,19.3423717 C15.33697,17.9730008 14.3441743,15.7135382 14.3441743,13.5225388 C14.3441743,10.1333467 16.5694035,8.38741169 19.2054339,8.38741169 C21.8072383,8.38741169 24.0666934,10.167595 24.0666934,13.5225388 C24.0666934,15.7135308 23.0396643,17.9387451 21.7045268,19.3423717 C21.1910141,20.917147 22.0126352,21.2937259 22.1495726,21.3279594 C25.025252,22.2865179 28.2432731,24.0667012 28.2432731,25.9153514 L28.2432731,26.5658016 L28.1748062,26.5658016 Z" id="形状" fill="#4F5876"></path>
            </g>
        </g>
    </g>
</svg>