<svg xmlns="http://www.w3.org/2000/svg" width="15" height="15"><path d="M2.956 13.03H.705a.283.283 0 0 1-.264-.271v-4.2a.291.291 0 0 1 .264-.27h2.25a.291.291 0 0 1 .264.27v4.2a.254.254 0 0 1-.264.271zm3.794 0H4.456a.283.283 0 0 1-.265-.271v-9.76a.291.291 0 0 1 .265-.27H6.75a.291.291 0 0 1 .264.27v9.76a.283.283 0 0 1-.264.271zm3.794 0H8.25a.283.283 0 0 1-.265-.271V5.73a.291.291 0 0 1 .265-.27h2.294a.292.292 0 0 1 .265.27v7.03a.284.284 0 0 1-.265.271zm3.794 0h-2.294a.283.283 0 0 1-.265-.271v-12.5a.283.283 0 0 1 .265-.27h2.294a.283.283 0 0 1 .265.27v12.5a.283.283 0 0 1-.265.271zm.4 1.97H.264A.283.283 0 0 1 0 14.73v-.54a.282.282 0 0 1 .264-.26h14.47a.283.283 0 0 1 .265.26v.6a.224.224 0 0 1-.265.22zm0 0" fill="#8d8d8d" fill-rule="evenodd"/></svg>