<svg xmlns="http://www.w3.org/2000/svg" width="19" height="13"><path d="M17.02 0h-15A2.013 2.013 0 0 0 0 1.964v9.073a2 2 0 0 0 1.98 1.964h15.04A2 2 0 0 0 19 11.037V1.964A1.938 1.938 0 0 0 17.02 0zm1.23 1.964v9.073a1.647 1.647 0 0 1-.11.478l-5.2-5.147 5.08-5.04a1.469 1.469 0 0 1 .22.637zM17.02.796c.16 0 .27.053.43.053h-.06l-7 7a1.308 1.308 0 0 1-1.71 0l-7-6.952H1.6a1 1 0 0 1 .42-.053zM.9 11.515a1.336 1.336 0 0 1-.11-.425V1.964a.928.928 0 0 1 .22-.637l5.08 5.04zm1.12.743a1.264 1.264 0 0 1-.59-.159l5.2-5.148 1.5 1.486a1.958 1.958 0 0 0 2.79 0l1.44-1.432 5.2 5.146a1.068 1.068 0 0 1-.59.16h-14.93v-.053zm0 0" fill="#1d1d1d" fill-rule="evenodd"/></svg>