<svg xmlns="http://www.w3.org/2000/svg" width="22" height="19" viewBox="0 0 22 18.062"><path d="M21.128 7.99h-4.243a.878.878 0 0 0-.871.883v.276a.877.877 0 0 0 .871.883h4.243A.877.877 0 0 0 22 9.15v-.276a.878.878 0 0 0-.872-.883zM11.283.414c-1.32 1.06-4.082 2.544-6.07 3.97-.023.014-.045.093-.068.106a1.913 1.913 0 0 1-1.617.5h-2.49a.9.9 0 0 0-1.035.983v6.057a.913.913 0 0 0 1.035 1.016h2.5a1.9 1.9 0 0 1 1.607.5c.023.013.045.092.07.106 1.925 1.427 4.706 3.028 6.07 4.043.4.306 1.776.844 1.776-1.047V1.38c0-1.892-1.377-1.288-1.777-.967zm3.92 4.173a.637.637 0 0 0 1 .225l3.49-2.968a1.017 1.017 0 0 0 .182-1.228L19.745.39a.637.637 0 0 0-1-.225L15.257 3.13a1.017 1.017 0 0 0-.183 1.228zm1 8.64a.639.639 0 0 0-1 .225l-.127.227a1.017 1.017 0 0 0 .182 1.228l3.488 2.967a.638.638 0 0 0 1-.224l.128-.227a1.021 1.021 0 0 0-.183-1.229zm0 0" fill="#4d4d4d" fill-rule="evenodd"/></svg>