<svg xmlns="http://www.w3.org/2000/svg" width="16" height="16"><path d="M16 7.993a8 8 0 1 0-9 7.932 4.114 4.114 0 0 0 .82.074 2.429 2.429 0 0 0 .26-.013A8 8 0 0 0 16 7.993zm-1.14.113a8.893 8.893 0 0 0-.16-1.169V6.554a7.549 7.549 0 0 1 .15 1.439v.113zM1.14 7.993a6.593 6.593 0 0 1 .15-1.413.722.722 0 0 0 1.16-.164.9.9 0 0 1 .72.578c0 1.2.04 2.48 1.13 2.5a1.567 1.567 0 0 1 .88.929c.1.245.47 0 .88 0 .2 0 0 .346 0 1.094s1.6 1.892 1.6 1.892a8.468 8.468 0 0 0 .05 1.21 2.712 2.712 0 0 0-.91.123 6.857 6.857 0 0 1-5.67-6.749zm8.55 6.642c-.04-.174-.2-.27-.48-.194a3.306 3.306 0 0 1 .81-1.914.639.639 0 0 0-.44-1.175c-.4.062-.15-.508-.5-.54A10.794 10.794 0 0 1 7.7 9.804a2.416 2.416 0 0 0-.99-.5c-.38-.015-.94.323-.94.062a15.679 15.679 0 0 0-.1-1.675c-.02-.192-.13-.064.4-.052.28.008.14-.564.42-.586a5.42 5.42 0 0 0 1.09.145c.15-.1 1.13 2.567 1.13.44a2.24 2.24 0 0 1 0-.93 11.348 11.348 0 0 0 .96-1.826 1.417 1.417 0 0 0-.93.02.864.864 0 0 1-.15.3c-.74.17-1.38-.2-1.16-.542S8.5 4.507 8.57 3.8l.1-1.225c1 .154.88-1.28-.6-1.432a6.855 6.855 0 0 1 6.4 4.606.286.286 0 0 0-.16-.074c-.45-1.107-1.52-.306-1.16.67-1.95 1.5-1.45 2.55-.8 3.15a5.743 5.743 0 0 1 .87 1.13c-.23.666.84.4 1.37-.73a6.861 6.861 0 0 1-4.9 4.742zm0 0" fill="#1d1d1d" fill-rule="evenodd"/></svg>