<svg xmlns="http://www.w3.org/2000/svg" width="16" height="16"><path d="M16 7.993a8 8 0 1 0-9 7.932 4.107 4.107 0 0 0 .82.074 2.482 2.482 0 0 0 .26-.013A8 8 0 0 0 16 7.993zm-1.14.113a8.9 8.9 0 0 0-.16-1.169V6.554a7.551 7.551 0 0 1 .15 1.439v.113zM1.14 7.993a6.591 6.591 0 0 1 .15-1.413.722.722 0 0 0 1.16-.164.9.9 0 0 1 .72.577c0 1.2.04 2.48 1.13 2.5a1.567 1.567 0 0 1 .88.929c.1.246.47 0 .88 0 .2 0 0 .346 0 1.094s1.6 1.892 1.6 1.892a8.469 8.469 0 0 0 .05 1.21 2.712 2.712 0 0 0-.91.123 6.857 6.857 0 0 1-5.67-6.749zm8.55 6.642c-.04-.174-.2-.27-.48-.195a3.307 3.307 0 0 1 .81-1.914.639.639 0 0 0-.44-1.174c-.4.062-.15-.508-.5-.54A10.839 10.839 0 0 1 7.7 9.804a2.415 2.415 0 0 0-.99-.5c-.38-.015-.94.323-.94.063a15.666 15.666 0 0 0-.1-1.675c-.02-.192-.13-.065.4-.052.28.007.14-.564.42-.587a5.37 5.37 0 0 0 1.09.145c.15-.1 1.13 2.567 1.13.44a2.24 2.24 0 0 1 0-.93 11.358 11.358 0 0 0 .96-1.826 1.418 1.418 0 0 0-.93.019.862.862 0 0 1-.15.3c-.74.17-1.38-.2-1.16-.542s1.08-.154 1.15-.862l.1-1.225c1 .154.88-1.28-.6-1.432a6.854 6.854 0 0 1 6.4 4.606.287.287 0 0 0-.16-.075c-.45-1.107-1.52-.306-1.16.67-1.95 1.5-1.45 2.55-.8 3.15a5.74 5.74 0 0 1 .87 1.13c-.23.666.84.4 1.37-.73a6.862 6.862 0 0 1-4.9 4.742zm0 0" fill="#eaeaea" fill-rule="evenodd"/></svg>