<svg xmlns="http://www.w3.org/2000/svg" width="129" height="39"><path d="M33.17.094a.921.921 0 0 0-1 .187l-2.365 1.44q-5.823 3.55-11.644 7.1a4.708 4.708 0 0 0-2.5 4.258v5.33l-.6-.36-11.908-7.262L1.17 9.593a.708.708 0 0 0-1.174.662c-.01.438.027.877.047 1.315l.665 14.97a4.892 4.892 0 0 0 2.484 4.235l13.383 8a.985.985 0 0 0 1.062.118.951.951 0 0 0 .414-.966l-.117-8.606a.863.863 0 0 1 .5-.873q5.936-3.513 11.85-7.062a4.9 4.9 0 0 0 2.523-4.264l.244-5.462q.236-5.3.47-10.62a.92.92 0 0 0-.348-.945zM5.584 20.177l2.462 4.184-2.053-.54a.828.828 0 0 0-1.011.573.809.809 0 0 0 .584.992l3.647.96 4.723 8.028q-4.66-2.782-9.322-5.56a2.753 2.753 0 0 1-1.448-2.445L2.6 13.787a.6.6 0 0 1 .034-.393.7.7 0 0 1 .453.2q5.494 3.342 10.985 6.7a2.551 2.551 0 0 1 1.342 2.333l.134 11.046L7.1 19.316a.888.888 0 0 0-1.2-.315.852.852 0 0 0-.316 1.176zM30.72 9.132l-.367 7.936a2.606 2.606 0 0 1-1.364 2.284q-4.606 2.737-9.2 5.49l4.68-7.954 3.647-.96a.809.809 0 0 0 .584-.992.827.827 0 0 0-1.011-.573l-2.052.54 2.462-4.185a.852.852 0 0 0-.321-1.176.888.888 0 0 0-1.2.315l-8.6 14.618.145-11.442a2.31 2.31 0 0 1 1.175-2.063q5.638-3.456 11.292-6.888c.085-.052.176-.092.35-.18l-.22 5.23zm25.2 24.445a2.25 2.25 0 0 1-.045.478.8.8 0 0 1-.158.341.675.675 0 0 1-.259.2.855.855 0 0 1-.327.06h-14a2.129 2.129 0 0 1-.981-.235.849.849 0 0 1-.462-.827V16.087a.847.847 0 0 1 .462-.826 2.129 2.129 0 0 1 .981-.235h13.843a.855.855 0 0 1 .327.06.519.519 0 0 1 .237.2 1.215 1.215 0 0 1 .146.342 1.951 1.951 0 0 1 .056.508 1.821 1.821 0 0 1-.056.478 1.083 1.083 0 0 1-.146.333.523.523 0 0 1-.237.19.837.837 0 0 1-.327.061H43.567v6.158h9.784a.774.774 0 0 1 .327.068.715.715 0 0 1 .248.19.761.761 0 0 1 .147.334 2.431 2.431 0 0 1 .045.5 2.143 2.143 0 0 1-.045.471.752.752 0 0 1-.147.318.578.578 0 0 1-.248.175.966.966 0 0 1-.327.053h-9.784v7.023h11.565a.837.837 0 0 1 .327.061.691.691 0 0 1 .259.189.741.741 0 0 1 .158.334 2.413 2.413 0 0 1 .045.505zm21.3-8.972a12.84 12.84 0 0 1-.637 4.179 8.071 8.071 0 0 1-5.086 5.175 12.977 12.977 0 0 1-4.466.7 13.215 13.215 0 0 1-4.353-.642 7.731 7.731 0 0 1-3.034-1.868 7.618 7.618 0 0 1-1.785-3.041 13.608 13.608 0 0 1-.586-4.179 12.508 12.508 0 0 1 .638-4.105 8.211 8.211 0 0 1 1.914-3.137 8.523 8.523 0 0 1 3.189-1.993 12.947 12.947 0 0 1 4.465-.7 13.1 13.1 0 0 1 4.292.634 7.871 7.871 0 0 1 3.043 1.853 7.549 7.549 0 0 1 1.811 3.012 13.071 13.071 0 0 1 .593 4.107zm-3.137.178a12.881 12.881 0 0 0-.336-3.02 6.4 6.4 0 0 0-1.12-2.421 5.209 5.209 0 0 0-2.091-1.6 8.041 8.041 0 0 0-3.237-.576 7.542 7.542 0 0 0-3.237.62 5.853 5.853 0 0 0-2.126 1.654 6.385 6.385 0 0 0-1.171 2.414 11.661 11.661 0 0 0-.353 2.9 13.779 13.779 0 0 0 .327 3.1 6.378 6.378 0 0 0 1.1 2.443 5.1 5.1 0 0 0 2.075 1.595 8.167 8.167 0 0 0 3.263.568 7.712 7.712 0 0 0 3.272-.62 5.652 5.652 0 0 0 2.135-1.676 6.553 6.553 0 0 0 1.153-2.443 12.148 12.148 0 0 0 .344-2.938zm20.48 4.265a4.549 4.549 0 0 1-.629 2.388 5.514 5.514 0 0 1-1.747 1.775 8.386 8.386 0 0 1-2.628 1.1 13.716 13.716 0 0 1-3.258.369 14.635 14.635 0 0 1-2.263-.163 15.111 15.111 0 0 1-1.858-.4 10.127 10.127 0 0 1-1.371-.487 3.7 3.7 0 0 1-.77-.427 1.04 1.04 0 0 1-.319-.449 2.1 2.1 0 0 1-.1-.73 3.2 3.2 0 0 1 .038-.538 1.064 1.064 0 0 1 .113-.346.414.414 0 0 1 .187-.184.62.62 0 0 1 .263-.052 1.787 1.787 0 0 1 .742.251 12.91 12.91 0 0 0 1.23.545 13.927 13.927 0 0 0 1.812.552 10.374 10.374 0 0 0 2.45.258 7.81 7.81 0 0 0 1.925-.221 5.015 5.015 0 0 0 1.5-.626 2.909 2.909 0 0 0 .967-.994 2.654 2.654 0 0 0 .338-1.342 2.124 2.124 0 0 0-.469-1.385 4.337 4.337 0 0 0-1.24-1.009 11.888 11.888 0 0 0-1.755-.8L85.7 25.4q-1.034-.375-2.01-.832a8.6 8.6 0 0 1-1.746-1.076 5.117 5.117 0 0 1-1.249-1.452 3.94 3.94 0 0 1-.479-2 4.1 4.1 0 0 1 .554-2.13 4.706 4.706 0 0 1 1.54-1.569 7.667 7.667 0 0 1 2.347-.966 12.394 12.394 0 0 1 2.938-.331 12.222 12.222 0 0 1 1.625.11 13.92 13.92 0 0 1 1.539.3 10.134 10.134 0 0 1 1.287.413 3.551 3.551 0 0 1 .741.368 1.269 1.269 0 0 1 .235.221.768.768 0 0 1 .094.207 1.635 1.635 0 0 1 .056.3 4.338 4.338 0 0 1 .019.456 3.484 3.484 0 0 1-.028.472 1.445 1.445 0 0 1-.085.346.4.4 0 0 1-.394.273 1.786 1.786 0 0 1-.648-.206q-.44-.207-1.08-.464a11.036 11.036 0 0 0-1.511-.472 8.292 8.292 0 0 0-1.962-.214 6.5 6.5 0 0 0-1.765.214 3.912 3.912 0 0 0-1.239.567 2.325 2.325 0 0 0-.733.84 2.265 2.265 0 0 0-.244 1.032 2.092 2.092 0 0 0 .47 1.37 4.369 4.369 0 0 0 1.248 1.017 12.107 12.107 0 0 0 1.775.811q.995.368 2.028.744 1.033.376 2.028.825a8.646 8.646 0 0 1 1.774 1.061 4.989 4.989 0 0 1 1.258 1.444 3.881 3.881 0 0 1 .476 1.969zm18.2-2.19a.937.937 0 0 1-.374.842 1.5 1.5 0 0 1-.853.25h-11.316a6.775 6.775 0 0 0 .287 2.048 3.7 3.7 0 0 0 .959 1.562 4.425 4.425 0 0 0 1.746 1 8.609 8.609 0 0 0 2.628.349 13.462 13.462 0 0 0 2.187-.16 15.751 15.751 0 0 0 1.66-.356q.7-.2 1.15-.357a2.274 2.274 0 0 1 .681-.159.533.533 0 0 1 .24.053.384.384 0 0 1 .163.159.937.937 0 0 1 .086.3 3.183 3.183 0 0 1 .029.463 2.593 2.593 0 0 1-.019.341 2.4 2.4 0 0 1-.048.258.592.592 0 0 1-.095.2.939.939 0 0 1-.172.174 3.015 3.015 0 0 1-.621.273 10.49 10.49 0 0 1-1.336.372q-.82.18-1.9.326a17.429 17.429 0 0 1-2.3.144 13.184 13.184 0 0 1-3.713-.47 7.239 7.239 0 0 1-2.683-1.4 5.791 5.791 0 0 1-1.641-2.32 8.753 8.753 0 0 1-.554-3.247 8.3 8.3 0 0 1 .573-3.162 6.463 6.463 0 0 1 1.651-2.382 7.4 7.4 0 0 1 2.606-1.5 10.52 10.52 0 0 1 3.417-.523 10.148 10.148 0 0 1 3.446.516 6.6 6.6 0 0 1 2.339 1.388 5.309 5.309 0 0 1 1.346 2.048 7.26 7.26 0 0 1 .429 2.51v.455zm-3.17-.743a3.933 3.933 0 0 0-1.1-3.095 4.781 4.781 0 0 0-3.448-1.122 5.564 5.564 0 0 0-2.055.349 4.441 4.441 0 0 0-1.479.925 4.075 4.075 0 0 0-.923 1.343 4.583 4.583 0 0 0-.364 1.6h9.373zm19.27 7.878a.686.686 0 0 1 .139.354.266.266 0 0 1-.165.233 1.41 1.41 0 0 1-.5.128 8.248 8.248 0 0 1-.874.037q-.52 0-.823-.022a2.4 2.4 0 0 1-.485-.076.723.723 0 0 1-.277-.135.919.919 0 0 1-.164-.188l-3.74-5.373-3.723 5.373a.924.924 0 0 1-.165.188.715.715 0 0 1-.277.135 2.356 2.356 0 0 1-.476.076q-.294.022-.78.022a7.357 7.357 0 0 1-.823-.037 1.2 1.2 0 0 1-.467-.128.248.248 0 0 1-.139-.233.724.724 0 0 1 .165-.354l4.848-6.608-4.59-6.366a.779.779 0 0 1-.147-.354.26.26 0 0 1 .156-.24 1.23 1.23 0 0 1 .5-.128 10.55 10.55 0 0 1 .892-.03q.5 0 .8.022a2.8 2.8 0 0 1 .476.068.643.643 0 0 1 .26.12.889.889 0 0 1 .156.181l3.55 5.042 3.6-5.042a1.163 1.163 0 0 1 .156-.166.734.734 0 0 1 .234-.127 1.707 1.707 0 0 1 .415-.076 9.31 9.31 0 0 1 .736-.022q.5 0 .823.03a1.323 1.323 0 0 1 .476.113.224.224 0 0 1 .139.233.907.907 0 0 1-.174.376l-4.553 6.29z" fill="#fff" fill-rule="evenodd"/></svg>