<?xml version="1.0" encoding="UTF-8"?>
<svg width="82px" height="29px" viewBox="0 0 82 29" version="1.1" xmlns="http://www.w3.org/2000/svg" xmlns:xlink="http://www.w3.org/1999/xlink">
    <!-- Generator: Sketch 56.2 (81672) - https://sketch.com -->
    <title>logo</title>
    <desc>Created with Sketch.</desc>
    <defs>
        <polygon id="path-1" points="0 28.0621691 81.803965 28.0621691 81.803965 0 0 0"></polygon>
    </defs>
    <g id="Page-1" stroke="none" stroke-width="1" fill="none" fill-rule="evenodd">
        <g id="登录-copy-3备份-10" transform="translate(-24.000000, -26.000000)">
            <g id="logo" transform="translate(24.000000, 26.000000)">
                <path d="M2.84348746,22.9102023 C2.84348746,22.9102023 3.06749329,24.2955959 2.11433294,26.0697125 C1.53913761,27.1400157 0.849429155,27.4311994 0.849429155,27.4311994 L0.849429155,28.0140449 C0.849429155,28.0140449 2.45404723,27.3829079 3.42633294,25.6817067 C3.42633294,25.6817067 4.01037376,27.2848904 5.95446706,28.0140449 L5.95446706,27.4311994 C5.95446706,27.4311994 5.00011137,26.8081907 4.49496268,25.8265813 C3.77345831,24.4251703 3.96040875,22.9102023 3.96040875,22.9102023 L2.84348746,22.9102023 Z" id="Fill-1" fill="#FEFEFE"></path>
                <mask id="mask-2" fill="white">
                    <use xlink:href="#path-1"></use>
                </mask>
                <g id="Clip-4"></g>
                <polygon id="Fill-3" fill="#31B0E6" mask="url(#mask-2)" points="1.33208163 3.74809329 2.46812828 3.74809329 2.46812828 2.15758017 1.33208163 2.15758017"></polygon>
                <polygon id="Fill-5" fill="#31B0E6" mask="url(#mask-2)" points="3.85925948 11.2469096 7.24014577 11.2469096 7.24014577 10.110863 3.85925948 10.110863"></polygon>
                <polygon id="Fill-6" fill="#31B0E6" mask="url(#mask-2)" points="0 20.3362391 4.03186589 20.3362391 4.03186589 3.74809329 0 3.74809329"></polygon>
                <polygon id="Fill-7" fill="#FEFEFE" mask="url(#mask-2)" points="67.0023673 10.5650904 70.4109854 10.5650904 70.4109854 9.42904373 67.0023673 9.42904373"></polygon>
                <path d="M21.5904087,22.9102023 C21.5904087,22.9102023 21.8144146,24.2955959 20.8612542,26.0697125 C20.2860589,27.1400157 19.5963504,27.4311994 19.5963504,27.4311994 L19.5963504,28.0140449 C19.5963504,28.0140449 21.2009685,27.3829079 22.1732542,25.6817067 C22.1732542,25.6817067 22.757295,27.2848904 24.7016274,28.0140449 L24.7016274,27.4311994 C24.7016274,27.4311994 23.7472717,26.8081907 23.241884,25.8265813 C22.5203796,24.4251703 22.7075691,22.9102023 22.7075691,22.9102023 L21.5904087,22.9102023 Z" id="Fill-8" fill="#FEFEFE" mask="url(#mask-2)"></path>
                <path d="M77.2822985,22.9426437 C77.2822985,22.9426437 77.1859545,23.0875184 77.1859545,23.2326321 L75.8813656,23.2326321 L75.8813656,23.9089528 L76.8959662,23.9089528 C76.8959662,23.9089528 76.6059778,24.6338041 76.1228233,25.0686671 L76.1228233,25.7452268 L78.0071499,25.7452268 L78.0071499,27.1944513 C78.0071499,27.1944513 78.0554414,27.4361481 77.7654531,27.4361481 L77.4757038,27.4361481 L77.4757038,28.0161248 L78.3454297,28.0161248 C78.3454297,28.0161248 79.070281,28.0161248 79.070281,27.2427429 L79.070281,25.7452268 L80.8094939,25.7452268 L80.8094939,25.0686671 L79.070281,25.0686671 L79.070281,24.2472327 L78.0071499,24.2472327 L78.0071499,25.0686671 L77.0891324,25.0686671 C77.0891324,25.0686671 77.8139837,24.3438157 77.9588583,23.9089528 L80.9543685,23.9089528 L80.9543685,23.2326321 L78.2971382,23.2326321 C78.2971382,23.2326321 78.3454297,23.0392268 78.3454297,22.9426437 L77.2822985,22.9426437 Z" id="Fill-9" fill="#FEFEFE" mask="url(#mask-2)"></path>
                <path d="M76.847579,26.0348805 C76.847579,26.0348805 76.5575907,26.953137 75.9295615,27.2428863 L75.9295615,27.822863 C75.9295615,27.822863 77.3790251,27.6294577 77.7655965,26.0348805 L76.847579,26.0348805 Z" id="Fill-10" fill="#FEFEFE" mask="url(#mask-2)"></path>
                <path d="M79.2151557,26.0348805 C79.2151557,26.0348805 79.3600303,27.4360525 80.9543685,27.822863 L80.9543685,27.2428863 C80.9543685,27.2428863 80.3263394,26.8080233 80.1331732,26.0348805 L79.2151557,26.0348805 Z" id="Fill-11" fill="#FEFEFE" mask="url(#mask-2)"></path>
                <path d="M58.0918601,24.4166356 L58.3832828,24.4166356 L58.3832828,23.6391895 L58.0918601,23.6391895 L58.0918601,24.4166356 Z M58.0918601,25.7783615 L58.3832828,25.7783615 L58.3832828,24.9526239 L58.0918601,24.9526239 L58.0918601,25.7783615 Z M57.3146531,23.0565831 L57.3146531,26.4589854 C57.3146531,26.4589854 57.3146531,27.4312711 57.0715219,27.4312711 L57.0715219,28.0621691 C57.0715219,28.0621691 58.1403907,27.819277 58.1403907,26.3609679 L58.3832828,26.3609679 L58.3832828,26.9452478 C58.3832828,26.9452478 58.3904548,27.4360525 58.0438076,27.4312711 L58.0438076,27.9677376 L58.5298309,27.9677376 C58.5298309,27.9677376 59.1621633,27.9172945 59.1621633,27.1881399 L59.1621633,23.0565831 L57.3146531,23.0565831 Z" id="Fill-12" fill="#FEFEFE" mask="url(#mask-2)"></path>
                <path d="M59.3569551,25.0491831 L62.1282204,25.0491831 L62.1110076,25.6803201 C62.1110076,25.6803201 62.1110076,26.0831481 61.3378647,27.0496962 C61.3378647,27.0496962 61.9816723,27.4845592 62.2248035,27.4845592 L62.2248035,28.0623843 C62.2248035,28.0623843 61.6818822,27.9705825 60.7095965,27.4845592 C60.7095965,27.4845592 60.1298589,27.8228391 59.260372,28.0623843 L59.260372,27.5278303 C59.260372,27.5278303 59.8386752,27.2928274 60.0815673,27.0496962 C60.0815673,27.0496962 59.9366927,26.9681743 59.356716,25.890221 L60.226681,25.890221 L60.7095965,26.5182501 C60.7095965,26.5182501 61.1446985,25.9232122 61.1446985,25.6803201 L59.3569551,25.6803201 L59.3569551,25.0491831 Z" id="Fill-13" fill="#FEFEFE" mask="url(#mask-2)"></path>
                <path d="M60.419895,23.8606373 L60.419895,23.6674711 L60.9130904,23.6875528 L60.9130904,24.1252845 C60.9130904,24.1252845 60.854519,24.8061475 61.4973703,24.8061475 L62.2076385,24.8061475 L62.2076385,24.1989172 L61.8853761,24.1989172 C61.8853761,24.1989172 61.7725364,24.2003516 61.7725364,23.9572204 L61.7725364,23.0392029 L59.5982216,23.0392029 L59.5982216,24.0540426 C59.5982216,24.0540426 59.5982216,24.440614 59.2601808,24.440614 L59.2601808,24.9235294 C59.2601808,24.9235294 60.419895,25.0203516 60.419895,23.8606373" id="Fill-14" fill="#FEFEFE" mask="url(#mask-2)"></path>
                <polygon id="Fill-15" fill="#31B0E6" mask="url(#mask-2)" points="25.4185656 11.2469096 28.8271837 11.2469096 28.8271837 10.110863 25.4185656 10.110863"></polygon>
                <path d="M42.0068309,16.4733697 L34.5228367,10.7897895 C39.2171574,9.95162041 41.0531924,8.23966122 41.0531924,5.42823265 C41.0531924,3.71722974 40.1796414,2.38586531 38.4330175,1.43413936 C36.6861545,0.482652478 34.2708601,0.00666997085 31.186895,0.00666997085 L21.4539971,0.00666997085 L21.4107259,17.2008507 L12.9948484,10.8337778 C17.6891691,9.99560875 19.4661545,8.28388863 19.4661545,5.47222099 C19.4661545,3.76145714 18.5926035,2.42985364 16.8459796,1.4781277 C15.0991166,0.526640816 12.6835831,0.050658309 9.59961808,0.050658309 L0.000119533528,0.050658309 L0.000119533528,2.34259417 L8.92425364,2.34259417 C10.9572799,2.34259417 12.5064344,2.63927638 13.5707609,3.23287988 C14.6353265,3.82696152 15.1674898,4.65198192 15.1674898,5.70818017 C15.1674898,6.84327055 14.5839271,7.75985364 13.4172799,8.45840758 C12.2506327,9.15696152 10.7323178,9.50599942 8.86281341,9.50599942 L7.06741983,9.50599942 L7.01291254,9.50599942 L7.01291254,11.761119 L18.2583878,20.3362152 L21.5701837,20.3163726 L25.6190233,20.2922268 L25.6190233,2.29860583 L30.5112915,2.29860583 C32.5445569,2.29860583 34.0934723,2.59528805 35.1580379,3.18913061 C36.2223644,3.78273411 36.7545277,4.60775452 36.7545277,5.66419184 C36.7545277,6.79904315 36.1712041,7.71586531 35.0043178,8.41441924 C33.8376706,9.11273411 32.3193557,9.46177201 30.4498513,9.46177201 L28.7072915,9.46177201 L28.7072915,11.7534688 L39.8454257,20.2922268 L42.0068309,20.2919878" id="Fill-16" fill="#FEFEFE" mask="url(#mask-2)"></path>
                <polygon id="Fill-17" fill="#2EB7BC" mask="url(#mask-2)" points="42.0068309 16.4733697 42.0068309 20.2919878 46.5015306 20.2915096"></polygon>
                <polygon id="Fill-18" fill="#666766" mask="url(#mask-2)" points="44.051691 3.97544606 44.2790437 3.97544606 44.2790437 2.38493294 44.051691 2.38493294"></polygon>
                <path d="M68.3658385,8.37741166 C68.1016694,8.01163907 67.1131271,6.83949329 67.0024391,6.7022688 L61.3095353,2.39067055e-05 L42.1009755,0.0585953353 L42.0873487,2.38973819 L55.7710688,2.38973819 L65.9971621,10.097021 L54.973302,18.0263971 L46.5014828,18.0263971 L46.5014828,11.2031843 L57.8416286,11.2031843 L57.8416286,8.88542915 L46.5014828,8.88542915 L46.5014828,3.97546997 L42.0804157,3.97546997 L42.0168239,16.0734583 L42.0067831,20.2913184 L60.4498501,20.2855808 L67.7370921,12.6636449 C68.0409464,12.246712 68.2491738,12.1723621 68.3658385,11.9983213 L68.3658385,8.37741166 Z" id="Fill-19" fill="#31B0E6" mask="url(#mask-2)"></path>
                <path d="M71.7534187,10.0577662 L81.6605965,-2.39067055e-05 L76.9732087,-2.39067055e-05 L70.4227714,6.9539586 C69.9723691,7.45599942 69.5915353,7.92983032 69.2747714,8.37736385 L69.2747714,11.9982735 C69.4710455,12.3061918 69.6290688,12.5246991 69.7471679,12.6506875 L76.8297685,20.2855329 L81.8040367,20.2855329 L71.7534187,10.0577662 Z" id="Fill-20" fill="#FEFEFE" mask="url(#mask-2)"></path>
                <polygon id="Fill-21" fill="#FEFEFE" mask="url(#mask-2)" points="43.5974636 3.97544606 44.7335102 3.97544606 44.7335102 2.38493294 43.5974636 2.38493294"></polygon>
                <path d="M38.3834828,22.9185936 L39.2584682,22.9185936 L39.2584682,23.301579 L40.5159609,23.301579 L40.5159609,23.9028327 L39.2584682,23.9028327 L39.2584682,24.3403254 C39.2584682,24.3403254 39.9873837,24.2490017 40.5159609,24.0852408 L40.4977918,24.7230717 C40.4977918,24.7230717 39.5135528,25.2698181 38.3834828,25.2698181 L38.3834828,22.9185936 Z" id="Fill-22" fill="#FEFEFE" mask="url(#mask-2)"></path>
                <path d="M40.7164904,22.9185936 L40.7164904,24.5043254 C40.7164904,24.5043254 40.661744,25.1423953 41.4090676,25.1423953 L42.6302222,25.1423953 C42.6302222,25.1423953 43.250123,25.1605644 43.250123,24.5043254 L43.250123,24.1034099 L42.5573067,24.1034099 L42.5573067,24.285579 C42.5573067,24.285579 42.5754758,24.5043254 42.3203913,24.5043254 L41.8647294,24.5043254 C41.8647294,24.5043254 41.6094058,24.5406636 41.6094058,24.2126636 L41.6094058,24.0302554 C41.6094058,24.0302554 42.8671376,24.0120863 43.1953767,23.0096781 L42.3748985,23.0096781 C42.3748985,23.0096781 42.119814,23.6477481 41.6094058,23.6477481 L41.6094058,22.9185936 L40.7164904,22.9185936 Z" id="Fill-23" fill="#FEFEFE" mask="url(#mask-2)"></path>
                <path d="M39.5500583,26.418344 L41.8831137,26.418344 L41.8831137,26.0353586 L39.5500583,26.0353586 L39.5500583,26.418344 Z M41.8831137,27.2149155 C41.8831137,27.3184315 41.7989621,27.4025831 41.695207,27.4025831 L39.5500583,27.4025831 L39.5500583,26.9832595 L41.8831137,26.9832595 L41.8831137,27.2149155 Z M40.7893819,25.4338659 C40.7893819,25.4338659 40.8804665,25.2516968 40.8804665,25.0692886 L40.1152128,25.0559009 C39.9610146,25.0532711 39.8285714,25.1646764 39.8049038,25.3172012 C39.8046647,25.3188746 39.8044257,25.320309 39.8041866,25.3219825 C39.7955802,25.3757726 39.7492012,25.4156968 39.6944548,25.4156968 L38.6021574,25.4156968 L38.5839883,28.0220058 L42.0471137,28.0220058 C42.0471137,28.0220058 42.8671137,28.0585831 42.8671137,27.2565131 L42.8671137,25.4338659 L40.7893819,25.4338659 Z" id="Fill-24" fill="#FEFEFE" mask="url(#mask-2)"></path>
            </g>
        </g>
    </g>
</svg>