<svg xmlns="http://www.w3.org/2000/svg" width="14" height="14"><path d="M8.6 8.437L7.1 9.906v3.673a.415.415 0 0 0 .42.42h1.06a.421.421 0 0 0 .42-.42v-4.722a.421.421 0 0 0-.42-.42zm-6.96.272L.1 10.22v3.034a.743.743 0 0 0 .75.745h.3a.75.75 0 0 0 .75-.745v-3.966a.744.744 0 0 0-.28-.579zm1.97-.157v4.7a.753.753 0 0 0 .76.745h.4a.751.751 0 0 0 .75-.745V9.38L4 7.89a.75.75 0 0 0-.41.661zM13.32 0l-2.9.063c-.3 0-.45.366-.15.663l.94.932L6.7 6.146 3.73 3.204a.428.428 0 0 0-.6 0L0 6.26v2.068l3.38-3.3 2.98 2.855a.427.427 0 0 0 .6-.009l5.32-5.162.98.967c.3.3.67.147.67-.156L14 .674a.777.777 0 0 0-.68-.67zm-2.7 6.44v6.813a.744.744 0 0 0 .75.745h.4a.744.744 0 0 0 .75-.745v-8.163a.727.727 0 0 0-.12-.412zm0 0" fill="#eff3f6" fill-rule="evenodd"/></svg>