<svg xmlns="http://www.w3.org/2000/svg" width="16" height="18"><path d="M15.86 11.815a.463.463 0 0 0-.49-.118 7.209 7.209 0 0 1-2.37.406A7.369 7.369 0 0 1 5.74 4.65a7.458 7.458 0 0 1 .4-2.424.5.5 0 0 0-.12-.506.463.463 0 0 0-.49-.114A8.433 8.433 0 0 0 0 9.573a8.19 8.19 0 0 0 15.98 2.756.531.531 0 0 0-.12-.514zm-4.44-8.51l.43.823.44-.823a2.014 2.014 0 0 1 .77-.791l.8-.45-.8-.45a2 2 0 0 1-.77-.792L11.85 0l-.43.823a1.981 1.981 0 0 1-.78.792l-.8.45.8.45a1.992 1.992 0 0 1 .78.791zm1.9 2.882l.5.274a1.191 1.191 0 0 1 .47.479l.26.5.27-.5a1.172 1.172 0 0 1 .47-.479l.48-.274-.48-.273a1.2 1.2 0 0 1-.47-.48l-.27-.5-.26.5a1.181 1.181 0 0 1-.47.48z" fill="#fff" fill-rule="evenodd"/></svg>