<svg xmlns="http://www.w3.org/2000/svg" width="14" height="14"><path d="M13.3 5.5h-1.23c-.116-.25-.28-.77-.49-1.14l.87-.85a.687.687 0 0 0 0-.979l-.993-.98a.7.7 0 0 0-.993 0l-.82.87c-.37-.2-.9-.37-1.14-.5V.7a.787.787 0 0 0-.8-.7H6.3a.787.787 0 0 0-.8.7v1.23c-.25.12-.77.28-1.14.5l-.844-.87a.7.7 0 0 0-.981 0l-.986 1a.7.7 0 0 0 0 .99l.87.82c-.2.37-.373.9-.5 1.14H.7a.791.791 0 0 0-.7.8v1.4a.791.791 0 0 0 .7.8h1.23c.117.25.28.77.492 1.14l-.87.85a.687.687 0 0 0 0 .979l.992.98a.7.7 0 0 0 .993 0l.82-.87c.37.2.89.37 1.14.5v1.23a.787.787 0 0 0 .8.7h1.4a.788.788 0 0 0 .8-.7v-1.23c.25-.12.77-.28 1.14-.5l.845.87a.694.694 0 0 0 .98 0l.987-1a.7.7 0 0 0 0-.99l-.87-.82c.21-.37.373-.9.49-1.14h1.23a.791.791 0 0 0 .7-.8V6.3a.791.791 0 0 0-.7-.8zM7 10.16A3.16 3.16 0 1 1 10.157 7 3.162 3.162 0 0 1 7 10.16zm0 0" fill="#8d8d8d" fill-rule="evenodd"/></svg>