<svg xmlns="http://www.w3.org/2000/svg" width="20" height="20"><path d="M14.17 10A4.171 4.171 0 1 1 10 5.72 4.23 4.23 0 0 1 14.17 10m5.45-2.8a.819.819 0 0 0-.85-.62 1.643 1.643 0 0 1-1.55-.85 1.757 1.757 0 0 1 .05-1.81.858.858 0 0 0-.09-1.06 10.283 10.283 0 0 0-1.69-1.41 9.933 9.933 0 0 0-3.05-1.4.829.829 0 0 0-.95.45 1.653 1.653 0 0 1-1.49.95A1.653 1.653 0 0 1 8.51.49.829.829 0 0 0 7.56.04a9.723 9.723 0 0 0-3.05 1.4 10.283 10.283 0 0 0-1.69 1.41.871.871 0 0 0-.09 1.07 1.738 1.738 0 0 1 .05 1.8 1.643 1.643 0 0 1-1.55.85.819.819 0 0 0-.85.62 10.58 10.58 0 0 0 0 5.62.839.839 0 0 0 .85.62 1.6 1.6 0 0 1 .44.03 1.664 1.664 0 0 1 1.21 1.02 1.743 1.743 0 0 1-.15 1.6.873.873 0 0 0 .09 1.07 10.283 10.283 0 0 0 1.69 1.41 9.723 9.723 0 0 0 3.05 1.4.829.829 0 0 0 .95-.45 1.664 1.664 0 0 1 1.49-.95 1.636 1.636 0 0 1 1.49.95.829.829 0 0 0 .95.45 9.827 9.827 0 0 0 3.05-1.4 10.283 10.283 0 0 0 1.69-1.41.873.873 0 0 0 .09-1.07 1.738 1.738 0 0 1-.05-1.8 1.643 1.643 0 0 1 1.55-.85.847.847 0 0 0 .85-.62 10.58 10.58 0 0 0 0-5.62" fill="#717273" fill-rule="evenodd"/></svg>