<svg xmlns="http://www.w3.org/2000/svg" width="20" height="20"><path d="M14.13 11.93a.954.954 0 0 0 .45.8.9.9 0 0 0 .9 0 .931.931 0 0 0 .45-.8.919.919 0 0 0-.45-.8.858.858 0 0 0-.9 0 .941.941 0 0 0-.45.8zm0 0l.26 2.04a1.582 1.582 0 0 1-1.55-1.6v-1.02a1.58 1.58 0 0 1 1.55-1.59H20v-3.3a1.573 1.573 0 0 0-1.55-1.59H1.54A1.571 1.571 0 0 0 0 6.47V18.4A1.578 1.578 0 0 0 1.54 20h16.9A1.58 1.58 0 0 0 20 18.41v-4.44h-5.6zm2.76-10.1l-1.63-3.04a1.515 1.515 0 0 0-2.1-.62L6.72 1.82H16.9zm0 0" fill="#2174FF" fill-rule="evenodd"/></svg>