<svg xmlns="http://www.w3.org/2000/svg" width="20" height="20"><path d="M19.6 14.67a24.592 24.592 0 0 1-2.6-4.52 12.85 12.85 0 0 1-1.02-4.62 5.23 5.23 0 0 0-1.26-3.35A6.331 6.331 0 0 0 11.45.23a5.569 5.569 0 0 0-6.02 1.92 7.625 7.625 0 0 0-1.65 4.42 12.592 12.592 0 0 1-.95 3.93 9.644 9.644 0 0 1-.7 1.34l-.95 1.5-.82 1.3a1.25 1.25 0 0 0-.32 1.04 1.09 1.09 0 0 0 .49.31 1.712 1.712 0 0 0 .65.13q1.935.03 8.73.03 6.915 0 8.85-.03a1.8 1.8 0 0 0 .66-.13 1.386 1.386 0 0 0 .51-.31.413.413 0 0 0-.03-.43 2.533 2.533 0 0 0-.31-.59zM9.97 20a3.076 3.076 0 0 0 2.23-.78 2.739 2.739 0 0 0 .8-2.12H7a2.608 2.608 0 0 0 .77 2.1 3.043 3.043 0 0 0 2.21.8zm0 0" fill="#717273" fill-rule="evenodd"/></svg>