<svg xmlns="http://www.w3.org/2000/svg" width="15" height="14" viewBox="0 0 14.031 14"><path d="M10.638 14a1.037 1.037 0 0 1-.518-.146l-2.827-1.547a.531.531 0 0 0-.28-.073.8.8 0 0 0-.28.058L3.92 13.854a.978.978 0 0 1-.532.146 1.174 1.174 0 0 1-1.133-1.387l.546-3.27a.673.673 0 0 0-.182-.555L.353 6.5a1.2 1.2 0 0 1-.294-1.226 1.173 1.173 0 0 1 .924-.818l3.135-.48a.626.626 0 0 0 .462-.336L5.98.66a1.123 1.123 0 0 1 2.043 0l1.4 2.978a.614.614 0 0 0 .462.336l3.135.48a1.18 1.18 0 0 1 .924.8 1.228 1.228 0 0 1-.28 1.227L11.41 8.79a.631.631 0 0 0-.182.555l.532 3.255a1.184 1.184 0 0 1-.252.964 1.092 1.092 0 0 1-.868.438zm0 0" fill="#323339" fill-rule="evenodd"/></svg>