<svg xmlns="http://www.w3.org/2000/svg" width="14" height="14" viewBox="0 0 14 14">
  <metadata><?xpacket begin="﻿" id="W5M0MpCehiHzreSzNTczkc9d"?>
<x:xmpmeta xmlns:x="adobe:ns:meta/" x:xmptk="Adobe XMP Core 5.6-c142 79.160924, 2017/07/13-01:06:39        ">
   <rdf:RDF xmlns:rdf="http://www.w3.org/1999/02/22-rdf-syntax-ns#">
      <rdf:Description rdf:about=""/>
   </rdf:RDF>
</x:xmpmeta>
                                                                                                    
                                                                                                    
                                                                                                    
                                                                                                    
                                                                                                    
                                                                                                    
                                                                                                    
                                                                                                    
                                                                                                    
                                                                                                    
                                                                                                    
                                                                                                    
                                                                                                    
                                                                                                    
                                                                                                    
                                                                                                    
                                                                                                    
                                                                                                    
                                                                                                    
                                                                                                    
                           
<?xpacket end="w"?></metadata>
<defs>
    <style>
      .cls-1 {
        fill: #1d1d1d;
        fill-rule: evenodd;
      }
    </style>
  </defs>
  <path id="提取" class="cls-1" d="M1723,636a0.606,0.606,0,0,1,.45.184l3.18,3.182a0.593,0.593,0,0,1,.19.453,0.618,0.618,0,0,1-.18.454,0.631,0.631,0,0,1-.46.182,0.606,0.606,0,0,1-.45-0.184l-2.09-2.1v7.373a0.636,0.636,0,0,1-.19.45,0.637,0.637,0,0,1-.9,0,0.636,0.636,0,0,1-.19-0.45v-7.373l-2.09,2.1a0.639,0.639,0,0,1-.45.184,0.644,0.644,0,0,1-.64-0.637,0.612,0.612,0,0,1,.19-0.452l3.18-3.182A0.6,0.6,0,0,1,1723,636h0Zm6.36,8.909a0.644,0.644,0,0,1,.64.637v2.545a1.9,1.9,0,0,1-1.89,1.909h-10.2a1.907,1.907,0,0,1-1.91-1.909v-2.545a0.644,0.644,0,0,1,.64-0.637,0.627,0.627,0,0,1,.63.637v2.545a0.633,0.633,0,0,0,.19.45,0.6,0.6,0,0,0,.45.187h10.2a0.6,0.6,0,0,0,.44-0.187,0.623,0.623,0,0,0,.18-0.45v-2.545a0.627,0.627,0,0,1,.63-0.637h0Zm0,0" transform="translate(-1716 -636)"/>
</svg>
