<svg xmlns="http://www.w3.org/2000/svg" width="24" height="24"><path d="M12 22a9.951 9.951 0 0 1-6.739-2.633A25.09 25.09 0 0 1 11.936 18a25.453 25.453 0 0 1 6.769 1.4A9.946 9.946 0 0 1 12 22m0-7a3 3 0 0 1-3-3V9a3 3 0 1 1 6 0v3a3.006 3.006 0 0 1-3 3m0-13a9.985 9.985 0 0 1 8.152 15.772 38.467 38.467 0 0 0-5.583-1.5A4.988 4.988 0 0 0 17 12V9A5 5 0 1 0 7 9v3a4.988 4.988 0 0 0 2.4 4.252 37.924 37.924 0 0 0-5.579 1.487A9.986 9.986 0 0 1 12 2m0-2a12 12 0 1 0 12 12A12.013 12.013 0 0 0 12 0" fill="#2174FF" fill-rule="evenodd"/></svg>