<?xml version="1.0" encoding="UTF-8"?>
<svg width="110px" height="25px" viewBox="0 0 110 25" version="1.1" xmlns="http://www.w3.org/2000/svg" xmlns:xlink="http://www.w3.org/1999/xlink">
    <!-- Generator: Sketch 57.1 (83088) - https://sketch.com -->
    <title>safari-pinned-tab</title>
    <desc>Created with Sketch.</desc>
    <defs>
        <polygon id="path-1" points="0.0512716962 1.8220219e-05 24.2759066 1.8220219e-05 24.2759066 24.4150934 0.0512716962 24.4150934"></polygon>
        <polygon id="path-3" points="0.000105191048 0.108246321 9.50902297 0.108246321 9.50902297 9.65671606 0.000105191048 9.65671606"></polygon>
        <polygon id="path-5" points="0.0172909878 1.8220219e-05 24.2419258 1.8220219e-05 24.2419258 24.4150934 0.0172909878 24.4150934"></polygon>
        <polygon id="path-7" points="0.14814447 0.108246321 9.65706224 0.108246321 9.65706224 9.65671606 0.14814447 9.65671606"></polygon>
        <polygon id="path-9" points="0.0342671709 1.8220219e-05 23.8489339 1.8220219e-05 23.8489339 24.4150934 0.0342671709 24.4150934"></polygon>
        <polygon id="path-11" points="0.165816247 1.8220219e-05 21.3134656 1.8220219e-05 21.3134656 24.4150934 0.165816247 24.4150934"></polygon>
        <polygon id="path-13" points="0.0279774171 0.102051447 10.2987237 0.102051447 10.2987237 10.567727 0.0279774171 10.567727"></polygon>
    </defs>
    <g id="rrex启动页" stroke="none" stroke-width="1" fill="none" fill-rule="evenodd">
        <g id="logo备份" transform="translate(-1540.000000, -923.000000)">
            <g id="safari-pinned-tab" transform="translate(1540.000000, 923.000000)">
                <g id="编组" transform="translate(1.639820, 0.000000)">
                    <mask id="mask-2" fill="white">
                        <use xlink:href="#path-1"></use>
                    </mask>
                    <g id="Clip-2"></g>
                    <path d="M18.5764971,10.0211387 C18.3316174,12.3925002 16.5168836,14.3868853 14.2710594,14.9757628 L5.22581389,4.88904958 L13.974252,4.88904958 C16.8085893,4.88904958 18.8691139,7.18661919 18.5764971,10.0211387 M15.2354556,1.8220219e-05 L1.49886809,1.8220219e-05 C1.12535361,1.8220219e-05 0.812330243,0.282431614 0.773885581,0.653941879 L0.336782528,4.88904958 L0.0512716962,7.65251019 L11.6216574,20.5547939 L11.6134583,20.6344162 L11.6724918,20.6118231 L15.0831346,24.4151117 L22.3276758,24.4151117 C22.4850985,24.4151117 22.5683649,24.2287188 22.4632343,24.1111984 L17.8323834,18.9472239 C21.2484923,17.2886374 23.8197296,13.9155283 24.2218498,10.0211387 C24.7932359,4.48656494 20.7698471,1.8220219e-05 15.2354556,1.8220219e-05" id="Fill-1" fill="#000000" mask="url(#mask-2)"></path>
                </g>
                <g id="编组" transform="translate(0.000000, 14.758377)">
                    <mask id="mask-4" fill="white">
                        <use xlink:href="#path-3"></use>
                    </mask>
                    <g id="Clip-4"></g>
                    <path d="M0.364477261,9.65673428 L9.50902297,9.65673428 L0.946248853,0.108246321 L0.00207710496,9.25497845 C-0.0201515622,9.46979483 0.148385463,9.65673428 0.364477261,9.65673428" id="Fill-3" fill="#000000" mask="url(#mask-4)"></path>
                </g>
                <g id="编组" transform="translate(30.792170, 0.000000)">
                    <mask id="mask-6" fill="white">
                        <use xlink:href="#path-5"></use>
                    </mask>
                    <g id="Clip-6"></g>
                    <path d="M18.5425164,10.0211387 C18.2976367,12.3925002 16.4829029,14.3868853 14.2368965,14.9757628 L5.19165098,4.88904958 L13.9400891,4.88904958 C16.7746086,4.88904958 18.834951,7.18661919 18.5425164,10.0211387 M15.2012927,1.8220219e-05 L1.46488739,1.8220219e-05 C1.0913729,1.8220219e-05 0.778167333,0.282431614 0.739904873,0.653941879 L0.302619617,4.88904958 L0.0172909878,7.65251019 L11.5874944,20.5547939 L11.5792953,20.6344162 L11.6385111,20.6118231 L15.0491539,24.4151117 L22.2935129,24.4151117 C22.4511178,24.4151117 22.5343842,24.2287188 22.4292535,24.1111984 L17.7984027,18.9472239 C21.2145115,17.2886374 23.7857489,13.9155283 24.1878691,10.0211387 C24.7592552,4.48656494 20.7358664,1.8220219e-05 15.2012927,1.8220219e-05" id="Fill-5" fill="#000000" mask="url(#mask-6)"></path>
                </g>
                <g id="编组" transform="translate(28.970148, 14.758377)">
                    <mask id="mask-8" fill="white">
                        <use xlink:href="#path-7"></use>
                    </mask>
                    <g id="Clip-8"></g>
                    <path d="M0.51251654,9.65673428 L9.65706224,9.65673428 L1.09447033,0.108246321 L0.150116384,9.25497845 C0.127887717,9.46979483 0.296424743,9.65673428 0.51251654,9.65673428" id="Fill-7" fill="#000000" mask="url(#mask-8)"></path>
                </g>
                <path d="M70.2334963,14.6393629 L80.5341149,14.6393629 C80.7190502,14.6393629 80.8744686,14.5008892 80.8961507,14.3172294 L81.404677,9.9791775 C81.4174311,9.8709494 81.3327071,9.77583985 81.223568,9.77583985 L70.9229494,9.77583985 C70.7381964,9.77583985 70.5825957,9.91413131 70.5610959,10.0977911 L70.0525696,14.4360253 C70.0399976,14.5442534 70.1243572,14.6393629 70.2334963,14.6393629" id="Fill-9" fill="#000000"></path>
                <g id="编组" transform="translate(58.669105, 0.000000)">
                    <mask id="mask-10" fill="white">
                        <use xlink:href="#path-9"></use>
                    </mask>
                    <g id="Clip-12"></g>
                    <path d="M3.35408723,1.8220219e-05 C2.98257697,1.8220219e-05 2.67046462,0.279334177 2.62965132,0.648658016 L0.0365497593,24.0104406 C0.0124990702,24.2263502 0.181582702,24.4151117 0.39858551,24.4151117 L5.74621978,24.4151117 L21.1612538,24.4151117 L21.1993341,24.4151117 L21.709318,19.7534686 C21.7211612,19.6456049 21.6368016,19.5515886 21.5282091,19.5515886 L6.28426285,19.5515886 L7.90932418,4.86354127 L23.0113349,4.86354127 C23.1971811,4.86354127 23.3533284,4.72360999 23.3735528,4.53867477 L23.8478251,0.201898247 C23.8596683,0.0942167524 23.7751265,1.8220219e-05 23.666534,1.8220219e-05 L8.44736725,1.8220219e-05 L3.35408723,1.8220219e-05 Z" id="Fill-11" fill="#000000" mask="url(#mask-10)"></path>
                </g>
                <g id="编组" transform="translate(88.550264, 0.000000)">
                    <mask id="mask-12" fill="white">
                        <use xlink:href="#path-11"></use>
                    </mask>
                    <g id="Clip-14"></g>
                    <path d="M20.9483324,1.8220219e-05 L14.9424016,1.8220219e-05 C14.7110048,1.8220219e-05 14.493091,0.110068343 14.3557105,0.296278981 L9.79427871,6.48331874 L6.67206199,0.396125781 C6.54725349,0.15306806 6.29690768,1.8220219e-05 6.0236044,1.8220219e-05 L0.348188385,1.8220219e-05 C0.211901147,1.8220219e-05 0.123897489,0.144140152 0.186210638,0.265304609 L12.3706177,24.0188219 C12.495244,24.2620618 12.7455898,24.4151117 13.0188931,24.4151117 L18.6943091,24.4151117 C18.8304141,24.4151117 18.9184178,24.2709897 18.856469,24.1498253 L12.7056875,12.1587348 L21.2416779,0.580696599 C21.4191428,0.340007506 21.2473262,1.8220219e-05 20.9483324,1.8220219e-05" id="Fill-13" fill="#000000" mask="url(#mask-12)"></path>
                </g>
                <g id="编组" transform="translate(85.452827, 13.847366)">
                    <mask id="mask-14" fill="white">
                        <use xlink:href="#path-13"></use>
                    </mask>
                    <g id="Clip-16"></g>
                    <path d="M0.393119445,10.5677452 L6.76709865,10.5677452 L10.2987237,5.77746746 L7.38767931,0.102051447 L0.0997739191,9.98706685 C-0.0776910137,10.2277559 0.0941256513,10.5677452 0.393119445,10.5677452" id="Fill-15" fill="#000000" mask="url(#mask-14)"></path>
                </g>
            </g>
        </g>
    </g>
</svg>