<?xml version="1.0" encoding="UTF-8"?>
<svg width="110px" height="39px" viewBox="0 0 110 39" version="1.1" xmlns="http://www.w3.org/2000/svg" xmlns:xlink="http://www.w3.org/1999/xlink">
    <!-- Generator: Sketch 56.2 (81672) - https://sketch.com -->
    <title>safari-pinned-tab</title>
    <desc>Created with Sketch.</desc>
    <defs>
        <polygon id="path-1" points="0 37.8297021 109.365745 37.8297021 109.365745 -0.000156028369 0 -0.000156028369"></polygon>
    </defs>
    <g id="Page-1" stroke="none" stroke-width="1" fill="none" fill-rule="evenodd">
        <g id="画板备份" transform="translate(-1701.000000, -459.000000)">
            <g id="safari-pinned-tab" transform="translate(1701.000000, 459.000000)">
                <g id="编组" transform="translate(0.000000, 0.442080)">
                    <path d="M4.97605674,31.4717801 L4.97605674,30.7930567 L3.92286525,30.7930567 L3.92286525,31.4717801 C3.87605674,33.7029858 2.88761702,35.4973121 0.958326241,36.8547589 L0.958326241,37.7987305 C2.6691773,36.9351135 3.83470922,35.6556809 4.4533617,33.9604326 C5.06187234,35.6556809 6.22740426,36.9351135 7.94839716,37.7987305 L7.94839716,36.8547589 C6.0027234,35.502773 5.0127234,33.7084468 4.97605674,31.4717801" id="Fill-1" fill="#000000"></path>
                    <path d="M29.9405957,31.4717801 L29.9405957,30.7930567 L28.8874043,30.7930567 L28.8874043,31.4717801 C28.8405957,33.7029858 27.852156,35.4973121 25.9228652,36.8547589 L25.9228652,37.7987305 C27.6337163,36.9351135 28.7992482,35.6556809 29.4179007,33.9604326 C30.0264113,35.6556809 31.1919433,36.9351135 32.9129362,37.7987305 L32.9129362,36.8547589 C30.9672624,35.502773 29.9772624,33.7084468 29.9405957,31.4717801" id="Fill-3" fill="#000000"></path>
                    <path d="M51.1606099,30.7540496 L51.1606099,33.8590142 C52.1334468,33.687383 53.0329504,33.4689433 53.8599007,33.203695 L53.8599007,32.5171702 C53.2880567,32.6778794 52.6896879,32.8081631 52.0655745,32.9072411 L52.0655745,32.0334823 L53.8911064,32.0334823 L53.8911064,31.4171702 L52.0655745,31.4171702 L52.0655745,30.7540496 L51.1606099,30.7540496 Z" id="Fill-5" fill="#000000"></path>
                    <mask id="mask-2" fill="white">
                        <use xlink:href="#path-1"></use>
                    </mask>
                    <g id="Clip-8"></g>
                    <path d="M52.4949645,35.6140993 L56.0680142,35.6140993 L56.0680142,34.8339574 L52.4949645,34.8339574 L52.4949645,35.6140993 Z M52.4949645,37.0339574 L56.0680142,37.0339574 L56.0680142,36.1992057 L52.4949645,36.1992057 L52.4949645,37.0339574 Z M56.8949645,33.0474326 L55.1942553,33.0474326 L55.1942553,32.2984965 C56.4058156,32.2048794 57.1703546,31.7523972 57.4870922,30.9410496 L56.6133333,30.9410496 C56.3168794,31.3155177 55.8441135,31.5573617 55.1942553,31.6665816 L55.1942553,30.7304113 L54.2885106,30.7304113 L54.2885106,33.6091348 L53.3289362,33.6091348 C53.2821277,33.8330355 53.2251773,34.0382128 53.1580851,34.2254468 L51.5112057,34.2254468 L51.5112057,37.6892766 L57.0502128,37.6892766 L57.0502128,34.2254468 L54.1800709,34.2254468 C54.2417021,34.0748794 54.2939716,33.8931064 54.3353191,33.6793475 L57.6282979,33.6793475 L57.6282979,32.3921135 L56.8949645,32.3921135 L56.8949645,33.0474326 Z" id="Fill-7" fill="#000000" mask="url(#mask-2)"></path>
                    <path d="M82.8771206,34.3892766 L82.8771206,33.7495603 L79.2182553,33.7495603 L79.2182553,34.3892766 L81.9175461,34.3892766 C81.6835035,34.9611206 81.3839291,35.4424681 81.020383,35.832539 C80.7028652,35.4994184 80.4399574,35.1023262 80.2324397,34.638922 L79.3274752,34.638922 C79.5981844,35.3355887 79.9539291,35.9160142 80.3962695,36.3786383 C80.0061986,36.6493475 79.5459149,36.8857305 79.0154184,37.0885674 L79.0154184,37.7984965 C79.8057021,37.5745957 80.4766241,37.278922 81.0281844,36.9091348 C81.5742837,37.2890638 82.2842128,37.5855177 83.1579716,37.7984965 L83.1579716,37.0729645 C82.544,36.8701277 82.0478298,36.6384255 81.6679007,36.3786383 C82.1983972,35.8637447 82.6009504,35.2006241 82.8771206,34.3892766" id="Fill-9" fill="#000000" mask="url(#mask-2)"></path>
                    <path d="M77.2987943,34.732539 L78.0477305,34.732539 L78.0477305,33.4297021 L77.2987943,33.4297021 L77.2987943,34.732539 Z M77.2987943,32.8445957 L78.0477305,32.8445957 L78.0477305,31.6041702 L77.2987943,31.6041702 L77.2987943,32.8445957 Z M76.4804255,35.2864397 C76.4804255,35.7131773 76.4515603,36.0486383 76.3938298,36.2928227 C76.3423404,36.5370071 76.2432624,36.7663688 76.0973759,36.9793475 L76.0973759,37.8297021 C76.8829787,37.4864397 77.2831915,36.6493475 77.2987943,35.3176454 L78.0477305,35.3176454 L78.0477305,37.1041702 L77.4938298,37.1041702 L77.4938298,37.7126809 L78.8434752,37.7126809 L78.8434752,30.9956596 L76.4804255,30.9956596 L76.4804255,35.2864397 Z" id="Fill-10" fill="#000000" mask="url(#mask-2)"></path>
                    <path d="M79.6552128,31.0348227 L79.6552128,31.9319858 C79.6754965,32.4671631 79.4757801,32.7956028 79.0545035,32.9149645 L79.0545035,33.5546809 C80.0788298,33.4665248 80.5734397,32.9563121 80.536773,32.0256028 L80.536773,31.6667376 L81.5353546,31.6667376 L81.5353546,33.3674468 L83.1346454,33.3674468 L83.1346454,32.7433333 L82.4169149,32.7433333 L82.4169149,31.0348227 L79.6552128,31.0348227 Z" id="Fill-11" fill="#000000" mask="url(#mask-2)"></path>
                    <path d="M106.940362,34.9824184 L105.99639,34.9824184 C106.27178,36.2985177 107.03866,37.1278085 108.297809,37.4710709 L108.297809,36.6597234 C107.606603,36.2907163 107.15334,35.7313546 106.940362,34.9824184" id="Fill-12" fill="#000000" mask="url(#mask-2)"></path>
                    <path d="M102.743277,34.9824184 C102.513915,35.7212128 102.051291,36.2751135 101.354624,36.6441206 L101.354624,37.4632695 C102.618454,37.1301489 103.404057,36.3031986 103.709872,34.9824184 L102.743277,34.9824184 Z" id="Fill-13" fill="#000000" mask="url(#mask-2)"></path>
                    <path d="M107.938397,33.8666596 L105.465348,33.8666596 L105.465348,32.6106312 L104.405135,32.6106312 L104.405135,33.8666596 L102.805844,33.8666596 C103.237262,33.351766 103.617191,32.7565177 103.944851,32.0801348 L108.274638,32.0801348 L108.274638,31.4014113 L104.249106,31.4014113 C104.331801,31.1985745 104.412156,30.9855957 104.49017,30.761695 L103.422156,30.761695 C103.338681,30.9801348 103.249745,31.1931135 103.156128,31.4014113 L101.346979,31.4014113 L101.346979,32.0801348 L102.83705,32.0801348 C102.529674,32.6730426 102.163007,33.2682908 101.73705,33.8666596 L101.73705,34.5375816 L104.405135,34.5375816 L104.405135,37.0730426 L103.468965,37.0730426 L103.468965,37.7439645 L105.465348,37.7439645 L105.465348,34.5375816 L107.938397,34.5375816 L107.938397,33.8666596 Z" id="Fill-14" fill="#000000" mask="url(#mask-2)"></path>
                    <path d="M74.1027872,23.8992553 L62.3429291,23.8992553 L62.3429291,15.0758511 L77.2826454,15.0758511 L77.2826454,11.9006738 L62.3429291,11.9006738 L62.3429291,5.5791844 L59.7786028,5.5791844 L59.7786028,3.13968085 L74.2143475,3.13968085 L88.0259787,13.7550709 L74.1027872,23.8992553 Z M38.1780355,12.605922 L38.1780355,13.2347163 L34.2289574,13.2347163 L34.2289574,3.13968085 L43.6881773,3.13968085 C43.6881773,3.13968085 49.0025035,3.7427305 49.0025035,7.65748227 C49.0025035,12.9015957 42.4571135,12.605922 38.1780355,12.605922 L38.1780355,12.605922 Z M9.41030496,12.605922 L9.41030496,13.2347163 L5.46122695,13.2347163 L5.46122695,4.74365248 L3.59200709,4.74365248 L3.59200709,3.13968085 L14.9204468,3.13968085 C14.9204468,3.13968085 20.234773,3.7427305 20.234773,7.65748227 C20.234773,12.9015957 13.689383,12.605922 9.41030496,12.605922 L9.41030496,12.605922 Z M96.3571135,13.7737943 L96.3571135,13.7379078 L96.3797376,13.7550709 L109.365979,0.000390070922 L102.540518,0.000390070922 L92.8355532,11.0175532 L92.8355532,12.589539 L91.2791702,12.589539 L91.2791702,11.0175532 L82.0773972,0.000390070922 L78.0471844,0.000390070922 L70.1295248,0.000390070922 L56.133,0.000390070922 L56.133,3.13968085 L58.0552695,3.13968085 L58.0552695,5.5791844 L56.133,5.5791844 L56.133,21.8919504 L45.9310851,14.5757801 C45.9310851,14.5757801 54.5126454,13.9852128 54.5126454,7.45152482 C54.5126454,0.918617021 45.0854113,0.000390070922 43.5578936,0.000390070922 L34.2289574,0.000390070922 L28.7679645,0.000390070922 L28.7679645,3.13968085 L28.7679645,22.8983333 L17.1633546,14.5757801 C17.1633546,14.5757801 25.7449149,13.9852128 25.7449149,7.45152482 C25.7449149,0.918617021 16.3176809,0.000390070922 14.7901631,0.000390070922 L0.000234042553,0.000390070922 L0.000234042553,3.13968085 L1.86867376,3.13968085 L1.86867376,4.74365248 L0.000234042553,4.74365248 L0.000234042553,27.5105319 L5.46122695,27.5105319 L5.46122695,14.9276241 L9.41030496,14.9276241 L9.41030496,15.7335106 L24.1596667,27.5105319 L28.7679645,27.5105319 L34.2289574,27.5105319 L34.2289574,14.9276241 L38.1780355,14.9276241 L38.1780355,15.7335106 L52.9273972,27.5105319 L56.133,27.5105319 L57.535695,27.5105319 L59.1724326,27.5105319 L62.3429291,27.5105319 L69.1465461,27.5105319 L81.086617,27.5105319 L81.0944184,27.5105319 L91.2791702,16.549539 L91.2791702,14.1818085 L92.8355532,14.1818085 L92.8355532,16.549539 L102.540518,27.5105319 L109.365979,27.5105319 L96.3797376,13.7550709 L96.3571135,13.7737943 Z" id="Fill-15" fill="#000000" mask="url(#mask-2)"></path>
                </g>
            </g>
        </g>
    </g>
</svg>